<svg xmlns="http://www.w3.org/2000/svg" viewBox="0 0 309.03 307.13"><title>logo Wooden</title><g id="Capa_2" data-name="Capa 2"><path d="M388.89,432.25c-39.59,0-78.55-16-107.95-44.51C250,357.71,232.82,316.6,233.78,275,235.67,194,303.5,126.84,385,125.15c40.8-.84,81.26,15.33,111.08,44.38s46.47,67.58,46.7,108.34h0c.45,80.71-65.1,149.87-146.11,154.18C394.08,432.18,391.48,432.25,388.89,432.25ZM388,140.12q-1.37,0-2.73,0c-73.59,1.52-134.83,62.15-136.53,135.15-.87,37.49,14.66,74.55,42.61,101.68,28.33,27.5,66.41,42.11,104.48,40.09C469,413.18,528.18,350.77,527.78,278h0c-.21-36.7-15.18-71.39-42.17-97.68C459.32,154.66,423.9,140.12,388,140.12Z" transform="translate(-233.75 -125.12)"/></g><g id="Capa_3" data-name="Capa 3"><path d="M330,251.65a13.93,13.93,0,0,1,.25,2.94,40.76,40.76,0,0,1-.29,4.23q-.3,2.61-1.05,6.53c-.39,1.74-.84,3.73-1.37,6a71.17,71.17,0,0,1-2.05,7,51.81,51.81,0,0,1-3,7.09,28.89,28.89,0,0,1-4.29,6.19,20,20,0,0,1-5.84,4.41,16.15,16.15,0,0,1-7.59,1.59,11.79,11.79,0,0,1-7.63-2.57,18.93,18.93,0,0,1-4.8-6.16,24.44,24.44,0,0,1-5,6,17.28,17.28,0,0,1-5.13,3,13.55,13.55,0,0,1-5,.82,17.12,17.12,0,0,1-4.42-.7,15.66,15.66,0,0,1-3.46-1.46,12.26,12.26,0,0,1-2.21-1.59,15.57,15.57,0,0,1-3.76-6,45.87,45.87,0,0,1-2.16-8.31,74.68,74.68,0,0,1-1-9.29q-.21-4.82-.13-9t.33-7.34q.25-3.13.42-4.44a7.53,7.53,0,0,1,.75-2.77,2.25,2.25,0,0,1,1.13-1,1.68,1.68,0,0,1,1.17,0,6.4,6.4,0,0,0,.87.28c.22.06.6.2,1.13.41s1.11.48,1.75.78,1.25.61,1.83.93a9.75,9.75,0,0,1,1.38.9,2,2,0,0,1,.67,1,4.84,4.84,0,0,1,.16,1.26,7.77,7.77,0,0,1-.16,1.55c-.28,2.18-.53,4.24-.75,6.2-.23,1.68-.41,3.39-.55,5.13s-.26,3.1-.37,4.08a28.81,28.81,0,0,0,0,3c0,1.34.12,2.79.29,4.36a45.68,45.68,0,0,0,.79,4.85,25.1,25.1,0,0,0,1.42,4.53,10.87,10.87,0,0,0,2.17,3.38,4.07,4.07,0,0,0,3,1.35,7.24,7.24,0,0,0,3.92-1.1,12.17,12.17,0,0,0,3.17-3,22.07,22.07,0,0,0,2.46-4.2,42,42,0,0,0,1.79-4.77,64.61,64.61,0,0,1-.75-7.74c0-2.23-.11-3.64-.16-4.24a24.43,24.43,0,0,1,0-3c.05-1.36.16-2.84.33-4.45s.42-3.22.75-4.85a24,24,0,0,1,1.25-4.28,8,8,0,0,1,1.75-2.77,2.13,2.13,0,0,1,2.42-.37,17.11,17.11,0,0,1,2.79,1.59,6.48,6.48,0,0,1,2.38,2.82,10.52,10.52,0,0,1,.88,3,20.81,20.81,0,0,1,.21,2.85c0,.9,0,1.72-.09,2.45s-.08,1.29-.08,1.67a24.07,24.07,0,0,1-.21,2.57c-.14,1.17-.33,2.54-.58,4.12s-.59,3.3-1,5.17a54.46,54.46,0,0,1-1.63,5.75,26.31,26.31,0,0,0,1.17,4.32,17,17,0,0,0,1.75,3.55,10.12,10.12,0,0,0,2.21,2.44,4.47,4.47,0,0,0,2.54,1,5.77,5.77,0,0,0,3.59-.86,11.57,11.57,0,0,0,3.13-3,31.58,31.58,0,0,0,2.83-4.73,65.89,65.89,0,0,0,2.63-6.11,46.37,46.37,0,0,0,2-7.54q.79-4.2,1.21-8.2t.54-7.13c.09-2.09.13-3.52.13-4.28a1.78,1.78,0,0,1,.58-1.55,2.11,2.11,0,0,1,1.46-.32,6.71,6.71,0,0,1,2,.53c.72.3,1.42.61,2.09.93a4.26,4.26,0,0,1,1.58,1.31,9.66,9.66,0,0,1,.92,1.55A10.89,10.89,0,0,1,330,251.65Z" transform="translate(-233.75 -125.12)"/><path d="M374.91,279.12a2,2,0,0,1,.33,1.75,7.31,7.31,0,0,1-1,2.74,12.41,12.41,0,0,1-2.46,2.85,10,10,0,0,1-3.92,2c-.95.27-2.09.53-3.42.77a20.08,20.08,0,0,1-4.34.29,8.43,8.43,0,0,1-1.87,3.05,13.46,13.46,0,0,1-3.51,2.69,21.35,21.35,0,0,1-4.83,1.92A22.44,22.44,0,0,1,344,298a16.6,16.6,0,0,1-6-.94,10.85,10.85,0,0,1-4-2.44,8.9,8.9,0,0,1-2.16-3.47,12.36,12.36,0,0,1-.67-4.07,8.41,8.41,0,0,1,1.25-4.2,14.07,14.07,0,0,1,3.42-3.91,18.29,18.29,0,0,1,5.09-2.86,17.83,17.83,0,0,1,6.33-1.1,12.6,12.6,0,0,1,3.59.45c1,.3,1.83.59,2.5.86a13.49,13.49,0,0,1,4.84,3.1,6.07,6.07,0,0,1,1.17,1.71c.27.27.58.56.91.85a5.53,5.53,0,0,0,1.42.86,7.49,7.49,0,0,0,1.63.41,11,11,0,0,0,2.17.12,9,9,0,0,0,2.12-.33,3.84,3.84,0,0,0,1.67-.93,30.58,30.58,0,0,1,3.34-2.78C373.6,278.63,374.35,278.58,374.91,279.12Zm-23.44,9A4.71,4.71,0,0,1,350.1,287a7.28,7.28,0,0,1-1.13-2c-.11-.38-.24-.76-.37-1.14a12.51,12.51,0,0,1-.38-1.22,4.67,4.67,0,0,0-.83-.08h-.75a5.15,5.15,0,0,0-1.5.32,8.38,8.38,0,0,0-2,.94,6.75,6.75,0,0,0-1.71,1.59,3.76,3.76,0,0,0-.75,2.36,3.33,3.33,0,0,0,.58,2.12,3.08,3.08,0,0,0,1.38,1,5.5,5.5,0,0,0,1.58.33l1.21,0c.22,0,.6,0,1.13-.08a8.38,8.38,0,0,0,1.75-.41,7.39,7.39,0,0,0,1.83-.94,4.15,4.15,0,0,0,1.38-1.67Z" transform="translate(-233.75 -125.12)"/><path d="M412.27,279.12a2,2,0,0,1,.33,1.75,7.31,7.31,0,0,1-1,2.74,12.17,12.17,0,0,1-2.46,2.85,10,10,0,0,1-3.92,2,34.76,34.76,0,0,1-3.42.77,20,20,0,0,1-4.33.29,8.47,8.47,0,0,1-1.88,3.05,13.57,13.57,0,0,1-3.5,2.69,21.43,21.43,0,0,1-4.84,1.92,22.44,22.44,0,0,1-5.88.73,16.64,16.64,0,0,1-6-.94,10.89,10.89,0,0,1-4-2.44,8.81,8.81,0,0,1-2.17-3.47,12.36,12.36,0,0,1-.67-4.07,8.41,8.41,0,0,1,1.25-4.2,14.07,14.07,0,0,1,3.42-3.91,18.43,18.43,0,0,1,5.09-2.86,17.89,17.89,0,0,1,6.34-1.1,12.58,12.58,0,0,1,3.58.45c1,.3,1.84.59,2.5.86a13.49,13.49,0,0,1,4.84,3.1,5.68,5.68,0,0,1,1.17,1.71c.28.27.58.56.92.85a5.28,5.28,0,0,0,1.41.86,7.49,7.49,0,0,0,1.63.41,11,11,0,0,0,2.17.12A9,9,0,0,0,405,283a3.84,3.84,0,0,0,1.67-.93,30.58,30.58,0,0,1,3.34-2.78C411,278.63,411.71,278.58,412.27,279.12Zm-23.43,9a4.88,4.88,0,0,1-1.38-1.14,7.28,7.28,0,0,1-1.13-2c-.11-.38-.23-.76-.37-1.14a12.51,12.51,0,0,1-.38-1.22,4.67,4.67,0,0,0-.83-.08H384a5.15,5.15,0,0,0-1.5.32,8.58,8.58,0,0,0-2,.94,6.75,6.75,0,0,0-1.71,1.59,3.76,3.76,0,0,0-.75,2.36,3.33,3.33,0,0,0,.58,2.12,3.08,3.08,0,0,0,1.38,1,5.5,5.5,0,0,0,1.58.33l1.21,0c.22,0,.6,0,1.13-.08a8.38,8.38,0,0,0,1.75-.41,7.22,7.22,0,0,0,1.83-.94,4.07,4.07,0,0,0,1.38-1.67Z" transform="translate(-233.75 -125.12)"/><path d="M453.47,289.31a8.16,8.16,0,0,1-1.46,2.9,15,15,0,0,1-3.34,3.25,18.82,18.82,0,0,1-5.13,2.6,21.21,21.21,0,0,1-6.92,1,10.28,10.28,0,0,1-6-1.52,12.64,12.64,0,0,1-3.22-3.18,14.79,14.79,0,0,1-3.12,2.68,13.77,13.77,0,0,1-3,1.4,12.57,12.57,0,0,1-2.63.58q-1.22.12-2.13.12a13.51,13.51,0,0,1-3.79-.57,10.71,10.71,0,0,1-3.59-1.83,10.05,10.05,0,0,1-2.71-3.34,11,11,0,0,1-1.08-5.1,11.87,11.87,0,0,1,1.12-5.25,10.88,10.88,0,0,1,3.13-3.88,14.39,14.39,0,0,1,4.75-2.36,21.25,21.25,0,0,1,6-.82,24.22,24.22,0,0,1,4.25.33,16.56,16.56,0,0,1,3.25.9v-.33a76.7,76.7,0,0,1,1-13.78,26.1,26.1,0,0,1,2.3-7.37,6.36,6.36,0,0,1,2.71-3,6.09,6.09,0,0,1,2.12-.57,5.83,5.83,0,0,1,1.63.25A2.47,2.47,0,0,1,439,254a10.07,10.07,0,0,1,.63,3.86,41.92,41.92,0,0,1-.8,7.33c-.44,2.49-.9,4.8-1.37,6.91s-1,4.07-1.55,5.86q-.58,3.82-.91,6.51a13.88,13.88,0,0,0,0,4.39,4.11,4.11,0,0,0,1.41,2.56,6.3,6.3,0,0,0,3.42,1,7.55,7.55,0,0,0,3.51-.45,9.71,9.71,0,0,0,2.5-1.43,7.82,7.82,0,0,0,1.54-1.59A3,3,0,0,0,448,288a6.08,6.08,0,0,1,1.63-3.18,3.3,3.3,0,0,1,2.79-.33c.61.16,1,.69,1.21,1.59A7.45,7.45,0,0,1,453.47,289.31Zm-27.77-4.48a14.56,14.56,0,0,0-2.63-.9,6,6,0,0,0-2.79,0q-3.67.74-4.55,2.45a4.12,4.12,0,0,0,0,3.66,1.87,1.87,0,0,0,1.38,1,5.65,5.65,0,0,0,2.58.08,7.13,7.13,0,0,0,2.92-1.26,7.88,7.88,0,0,0,2.46-3.06,6.11,6.11,0,0,0,.33-.81C425.47,285.64,425.58,285.26,425.7,284.83Z" transform="translate(-233.75 -125.12)"/><path d="M487.66,289.39a12.12,12.12,0,0,1-2.42,3.39,19.87,19.87,0,0,1-4.54,3.42,29.16,29.16,0,0,1-6.68,2.65,33,33,0,0,1-8.63,1.06,28.25,28.25,0,0,1-8.17-1,14.54,14.54,0,0,1-5.38-2.81,8.89,8.89,0,0,1-2.75-4.2,12.21,12.21,0,0,1-.29-5.26,9.67,9.67,0,0,1,2.54-5.46,16,16,0,0,1,4.55-3.34,18.74,18.74,0,0,1,5-1.67,23.83,23.83,0,0,1,4-.45,20,20,0,0,1,3.34.32,14.65,14.65,0,0,1,3.46,1.06,7.88,7.88,0,0,1,2.71,2,4.52,4.52,0,0,1,1.08,3.1,7.28,7.28,0,0,1-.83,3.46,10.38,10.38,0,0,1-2.25,2.86,13.47,13.47,0,0,1-3.25,2.11,16.8,16.8,0,0,1-3.84,1.27,23.36,23.36,0,0,1-4.84.65,7.72,7.72,0,0,0,2.3,1.51,7.55,7.55,0,0,0,3.12.61,25.86,25.86,0,0,0,6.84-.82,24.21,24.21,0,0,0,5-1.91,14.28,14.28,0,0,0,3.21-2.24,5.72,5.72,0,0,0,1.33-1.63,9.44,9.44,0,0,1,1.71-3.14,2.78,2.78,0,0,1,2.63-.37c.61.11,1,.65,1.29,1.63A5.45,5.45,0,0,1,487.66,289.39Zm-21.1-5.87a1.62,1.62,0,0,0-1.33-.89,7.82,7.82,0,0,0-2.92.32,4.75,4.75,0,0,0-2.59,1.51,5.31,5.31,0,0,0-1.17,2.49,24.57,24.57,0,0,0,2.63.2,7.35,7.35,0,0,0,3.05-.61,4.84,4.84,0,0,0,2.16-1.47A1.35,1.35,0,0,0,466.56,283.52Z" transform="translate(-233.75 -125.12)"/><path d="M521.77,289.47a20.06,20.06,0,0,1-1.54,3,12.92,12.92,0,0,1-2.38,2.81,11.47,11.47,0,0,1-3.46,2.08,12.57,12.57,0,0,1-4.71.82,9.69,9.69,0,0,1-4.59-1,10.64,10.64,0,0,1-3-2.28,10.08,10.08,0,0,1-1.76-2.65c-.38-.9-.66-1.56-.83-2a11.25,11.25,0,0,1-.46-1.55c-.14-.6-.26-1.18-.37-1.75s-.23-1.06-.34-1.47a1.35,1.35,0,0,0-.41-.77c-.17-.06-.39.06-.67.36a8.6,8.6,0,0,0-.88,1.18c-.3.49-.61,1-.91,1.51s-.55.91-.71,1.19-.41.69-.71,1.26a15.39,15.39,0,0,0-.84,1.83l-.7,1.84a3.82,3.82,0,0,0-.34,1.26,2.74,2.74,0,0,1-1,1.59,3.12,3.12,0,0,1-1.21.77,6.27,6.27,0,0,1-1.54,0,8.23,8.23,0,0,1-3.21-1.3c-.67-.38-1.18-1.34-1.54-2.89a43.39,43.39,0,0,1-.84-5.06c-.19-1.82-.32-3.57-.37-5.26s-.09-2.88-.09-3.58c-.11-2.77,1.45-3.92,4.67-3.43a4.89,4.89,0,0,1,2,.82,4.17,4.17,0,0,1,1.16,1.3,4.72,4.72,0,0,1,.55,1.43,6.81,6.81,0,0,1,.12,1.1c.11,1.2.31,1.79.59,1.79.05,0,.23-.17.54-.53l1.12-1.3,1.5-1.71a20.22,20.22,0,0,1,1.67-1.67,5.47,5.47,0,0,1,2-1.1,9.15,9.15,0,0,1,2.34-.45,12.88,12.88,0,0,1,2.33,0,10.54,10.54,0,0,1,2,.37,2.39,2.39,0,0,1,1.29,1.14,6.2,6.2,0,0,1,.67,2,18.36,18.36,0,0,1,.25,2.61c0,.95,0,1.92,0,2.9s0,1.9.09,2.77a8.14,8.14,0,0,0,.41,2.24,3.36,3.36,0,0,0,1.05,1.51,2.88,2.88,0,0,0,1.87.57,6.13,6.13,0,0,0,3.88-1.14,5.58,5.58,0,0,0,2-2.69,8.24,8.24,0,0,1,1.67-3.14,2.87,2.87,0,0,1,2.67-.37,1.25,1.25,0,0,1,.75.65,4.06,4.06,0,0,1,.46,1.31,7.13,7.13,0,0,1,.08,1.55,4.15,4.15,0,0,1-.29,1.38Z" transform="translate(-233.75 -125.12)"/></g></svg>