<svg width="154" height="13" viewBox="0 0 154 13" fill="none" xmlns="http://www.w3.org/2000/svg">
<path d="M14.7783 5.712C14.7543 5.968 14.7343 6.268 14.7183 6.612C14.7023 6.948 14.6863 7.284 14.6703 7.62C14.6623 7.948 14.6543 8.252 14.6463 8.532C14.6463 8.804 14.6463 9.008 14.6463 9.144C14.6463 9.28 14.6103 9.368 14.5383 9.408C14.4663 9.448 14.3783 9.456 14.2743 9.432C14.1703 9.416 14.0623 9.38 13.9503 9.324C13.8383 9.276 13.7423 9.228 13.6623 9.18C13.5103 9.084 13.4183 8.944 13.3863 8.76C13.3623 8.568 13.3423 8.344 13.3263 8.088C13.3103 7.712 13.3103 7.316 13.3263 6.9C13.3503 6.484 13.3783 6.072 13.4103 5.664C13.4503 5.256 13.4863 4.868 13.5183 4.5C13.5503 4.124 13.5663 3.796 13.5663 3.516C13.5743 3.228 13.5583 3 13.5183 2.832C13.4863 2.664 13.4223 2.58 13.3263 2.58C13.1903 2.58 13.0383 2.676 12.8703 2.868C12.7103 3.06 12.5463 3.32 12.3783 3.648C12.2103 3.968 12.0423 4.336 11.8743 4.752C11.7063 5.168 11.5503 5.592 11.4063 6.024C11.2703 6.456 11.1463 6.884 11.0343 7.308C10.9223 7.724 10.8383 8.096 10.7823 8.424C10.7663 8.584 10.7503 8.716 10.7343 8.82C10.7183 8.924 10.6983 8.98 10.6743 8.988C10.6103 9.028 10.5143 9.064 10.3863 9.096C10.2583 9.136 10.1263 9.136 9.99035 9.096C9.91835 9.072 9.84235 9.028 9.76235 8.964C9.68235 8.9 9.60635 8.816 9.53435 8.712C9.46235 8.6 9.40235 8.472 9.35435 8.328C9.31435 8.184 9.29835 8.028 9.30635 7.86C9.30635 7.796 9.31835 7.62 9.34235 7.332C9.37435 7.044 9.40235 6.704 9.42635 6.312C9.45035 5.912 9.47035 5.488 9.48635 5.04C9.50235 4.592 9.49835 4.176 9.47435 3.792C9.45835 3.408 9.41435 3.088 9.34235 2.832C9.27835 2.576 9.18235 2.436 9.05435 2.412C8.88635 2.388 8.72235 2.472 8.56235 2.664C8.40235 2.848 8.25035 3.1 8.10635 3.42C7.97035 3.74 7.84234 4.112 7.72235 4.536C7.60235 4.952 7.49435 5.376 7.39834 5.808C7.30235 6.24 7.21835 6.664 7.14635 7.08C7.08235 7.496 7.03435 7.864 7.00235 8.184C6.97835 8.44 6.95035 8.636 6.91835 8.772C6.89435 8.9 6.82235 8.968 6.70235 8.976C6.63835 8.984 6.55435 8.976 6.45035 8.952C6.35435 8.92 6.26235 8.888 6.17435 8.856C6.07035 8.824 5.95835 8.784 5.83835 8.736C5.80635 8.72 5.77835 8.7 5.75435 8.676C5.70635 8.628 5.68635 8.576 5.69435 8.52C5.70235 8.488 5.71835 8.356 5.74235 8.124C5.77435 7.892 5.80235 7.604 5.82635 7.26C5.85035 6.908 5.86235 6.52 5.86235 6.096C5.87035 5.672 5.85035 5.252 5.80235 4.836C5.70635 4.004 5.58635 3.36 5.44235 2.904C5.29835 2.44 5.07435 2.164 4.77035 2.076C4.61835 2.036 4.46235 2.028 4.30235 2.052C4.14235 2.076 3.96635 2.156 3.77435 2.292C3.59035 2.42 3.38235 2.616 3.15035 2.88C2.91835 3.136 2.65834 3.476 2.37034 3.9C2.25034 4.076 2.15435 4.224 2.08235 4.344C2.01035 4.464 1.95434 4.56 1.91434 4.632C1.87435 4.704 1.83835 4.756 1.80635 4.788C1.78234 4.82 1.75434 4.836 1.72234 4.836C1.65034 4.836 1.55034 4.832 1.42234 4.824C1.29434 4.816 1.17434 4.744 1.06234 4.608C1.00634 4.536 0.986345 4.424 1.00234 4.272C1.01834 4.112 1.05434 3.944 1.11034 3.768C1.16634 3.592 1.23434 3.42 1.31434 3.252C1.39434 3.084 1.46634 2.952 1.53034 2.856C1.59435 2.76 1.71035 2.592 1.87834 2.352C2.04635 2.112 2.25035 1.868 2.49035 1.62C2.73835 1.372 3.02235 1.16 3.34234 0.983999C3.66235 0.807999 4.01035 0.735999 4.38635 0.767999C4.71435 0.799999 5.01035 0.875999 5.27435 0.995999C5.54635 1.108 5.78635 1.284 5.99435 1.524C6.20235 1.756 6.37835 2.06 6.52235 2.436C6.66635 2.812 6.78235 3.268 6.87035 3.804C6.93435 3.652 7.01035 3.476 7.09835 3.276C7.19435 3.068 7.29835 2.86 7.41035 2.652C7.52235 2.436 7.64635 2.224 7.78235 2.016C7.91835 1.808 8.05835 1.628 8.20235 1.476C8.35435 1.316 8.50635 1.192 8.65835 1.104C8.81835 1.008 8.98235 0.968 9.15035 0.983999C9.42235 1.008 9.65435 1.076 9.84635 1.188C10.0463 1.3 10.2103 1.488 10.3383 1.752C10.4743 2.008 10.5823 2.36 10.6623 2.808C10.7423 3.248 10.7983 3.808 10.8303 4.488C10.9583 4.152 11.1143 3.788 11.2983 3.396C11.4823 2.996 11.6863 2.632 11.9103 2.304C12.1343 1.968 12.3743 1.696 12.6303 1.488C12.8863 1.272 13.1503 1.184 13.4223 1.224C13.7903 1.28 14.0823 1.404 14.2983 1.596C14.5143 1.788 14.6743 2.024 14.7783 2.304C14.8903 2.576 14.9543 2.876 14.9703 3.204C14.9863 3.524 14.9823 3.844 14.9583 4.164C14.9423 4.476 14.9103 4.768 14.8623 5.04C14.8223 5.312 14.7943 5.536 14.7783 5.712ZM21.1743 6.948C21.2463 6.964 21.2983 7.028 21.3303 7.14C21.3623 7.244 21.3663 7.372 21.3423 7.524C21.3263 7.676 21.2823 7.84 21.2103 8.016C21.1383 8.184 21.0343 8.34 20.8983 8.484C20.7623 8.628 20.5943 8.748 20.3943 8.844C20.1943 8.94 19.9543 8.984 19.6743 8.976C19.4103 8.968 19.1903 8.932 19.0143 8.868C18.8383 8.804 18.6943 8.728 18.5823 8.64C18.4543 8.552 18.3503 8.444 18.2703 8.316C18.1183 8.444 17.9543 8.556 17.7783 8.652C17.6263 8.74 17.4503 8.82 17.2503 8.892C17.0583 8.956 16.8543 8.988 16.6383 8.988C16.5823 8.988 16.4623 8.972 16.2783 8.94C16.1023 8.908 15.9143 8.844 15.7143 8.748C15.5223 8.644 15.3503 8.496 15.1983 8.304C15.0543 8.112 14.9823 7.86 14.9823 7.548C14.9823 7.236 15.0583 6.96 15.2103 6.72C15.3623 6.472 15.5503 6.268 15.7743 6.108C15.9983 5.94 16.2383 5.816 16.4943 5.736C16.7583 5.656 16.9983 5.616 17.2143 5.616C17.3503 5.616 17.4743 5.628 17.5863 5.652C17.7063 5.668 17.8103 5.688 17.8983 5.712C17.9943 5.744 18.0823 5.776 18.1623 5.808C18.1703 5.816 18.1823 5.816 18.1983 5.808C18.2143 5.808 18.2463 5.792 18.2943 5.76C18.3103 5.752 18.3383 5.736 18.3783 5.712C18.4263 5.688 18.4823 5.676 18.5463 5.676C18.6183 5.668 18.6943 5.672 18.7743 5.688C18.8623 5.704 18.9583 5.744 19.0623 5.808C19.1663 5.872 19.2423 5.94 19.2903 6.012C19.3383 6.076 19.3703 6.14 19.3863 6.204C19.4023 6.26 19.4063 6.312 19.3983 6.36C19.3903 6.408 19.3863 6.444 19.3863 6.468C19.3863 6.492 19.3743 6.544 19.3503 6.624C19.3263 6.696 19.3023 6.78 19.2783 6.876C19.2543 6.972 19.2343 7.076 19.2183 7.188C19.2023 7.3 19.1983 7.408 19.2063 7.512C19.2223 7.72 19.2623 7.856 19.3263 7.92C19.3903 7.984 19.4903 8.032 19.6263 8.064C19.6903 8.08 19.7663 8.084 19.8543 8.076C19.9503 8.06 20.0423 8.028 20.1303 7.98C20.2263 7.932 20.3103 7.868 20.3823 7.788C20.4543 7.708 20.5023 7.608 20.5263 7.488C20.5583 7.336 20.6023 7.22 20.6583 7.14C20.7223 7.06 20.7823 7.004 20.8383 6.972C20.9023 6.94 20.9623 6.928 21.0183 6.936C21.0823 6.936 21.1343 6.94 21.1743 6.948ZM18.0063 7.032C17.9903 7.032 17.9743 7.028 17.9583 7.02C17.9183 6.996 17.8943 6.976 17.8863 6.96C17.8703 6.92 17.8583 6.892 17.8503 6.876C17.8423 6.86 17.8223 6.844 17.7903 6.828C17.6943 6.804 17.5783 6.792 17.4423 6.792C17.3143 6.784 17.1863 6.8 17.0583 6.84C16.9303 6.88 16.8103 6.948 16.6983 7.044C16.5863 7.132 16.5063 7.264 16.4583 7.44C16.4263 7.552 16.4223 7.644 16.4463 7.716C16.4783 7.788 16.5263 7.844 16.5903 7.884C16.6543 7.924 16.7263 7.948 16.8063 7.956C16.8943 7.964 16.9823 7.956 17.0703 7.932C17.2783 7.884 17.4423 7.812 17.5623 7.716C17.6903 7.62 17.7863 7.52 17.8503 7.416C17.9303 7.296 17.9823 7.168 18.0063 7.032ZM23.8844 7.668C23.8604 7.74 23.8044 7.848 23.7164 7.992C23.6364 8.136 23.5244 8.28 23.3804 8.424C23.2364 8.568 23.0604 8.696 22.8524 8.808C22.6444 8.912 22.4044 8.964 22.1324 8.964C21.7884 8.964 21.5044 8.9 21.2804 8.772C21.0564 8.644 20.8764 8.48 20.7404 8.28C20.6124 8.072 20.5244 7.844 20.4764 7.596C20.4284 7.34 20.4044 7.092 20.4044 6.852C20.4044 6.644 20.4124 6.4 20.4284 6.12C20.4444 5.832 20.4604 5.548 20.4764 5.268C20.2284 5.268 19.9964 5.268 19.7804 5.268C19.5644 5.268 19.4204 5.26 19.3484 5.244C19.2924 5.228 19.2444 5.204 19.2044 5.172C19.1564 5.14 19.1284 5.08 19.1204 4.992C19.1204 4.952 19.1324 4.896 19.1564 4.824C19.1804 4.752 19.2124 4.7 19.2524 4.668C19.3004 4.62 19.3804 4.572 19.4924 4.524C19.5964 4.476 19.7164 4.448 19.8524 4.44L20.5484 4.416C20.5644 4.304 20.5724 4.212 20.5724 4.14C20.5804 4.068 20.5884 4.02 20.5964 3.996C20.6044 3.94 20.6084 3.868 20.6084 3.78C20.6164 3.692 20.6244 3.6 20.6324 3.504C20.6404 3.408 20.6484 3.32 20.6564 3.24C20.6724 3.152 20.6924 3.076 20.7164 3.012C20.7644 2.884 20.8404 2.78 20.9444 2.7C21.0484 2.612 21.1684 2.564 21.3044 2.556C21.4404 2.556 21.5404 2.596 21.6044 2.676C21.6764 2.756 21.7324 2.816 21.7724 2.856C21.8124 2.888 21.8564 2.96 21.9044 3.072C21.9604 3.176 21.9684 3.328 21.9284 3.528C21.9124 3.6 21.8924 3.712 21.8684 3.864C21.8524 4.016 21.8284 4.188 21.7964 4.38C22.0524 4.364 22.2244 4.364 22.3124 4.38C22.4724 4.38 22.5964 4.38 22.6844 4.38C22.7804 4.372 22.8764 4.388 22.9724 4.428C23.0604 4.468 23.1044 4.512 23.1044 4.56C23.1044 4.608 23.0964 4.66 23.0804 4.716C23.0724 4.764 23.0284 4.844 22.9484 4.956C22.8764 5.06 22.7604 5.12 22.6004 5.136C22.5124 5.144 22.3844 5.16 22.2164 5.184C22.0564 5.208 21.8844 5.228 21.7004 5.244C21.6764 5.46 21.6524 5.66 21.6284 5.844C21.6124 6.028 21.5964 6.176 21.5804 6.288C21.5644 6.432 21.5524 6.608 21.5444 6.816C21.5444 7.016 21.5604 7.212 21.5924 7.404C21.6324 7.588 21.6964 7.748 21.7844 7.884C21.8804 8.012 22.0204 8.076 22.2044 8.076C22.3884 8.076 22.5364 8.048 22.6484 7.992C22.7684 7.936 22.8604 7.872 22.9244 7.8C22.9884 7.728 23.0324 7.66 23.0564 7.596C23.0804 7.532 23.0964 7.492 23.1044 7.476C23.2084 7.228 23.2964 7.072 23.3684 7.008C23.4404 6.936 23.5644 6.92 23.7404 6.96C23.8284 6.984 23.8924 7.068 23.9324 7.212C23.9804 7.348 23.9684 7.504 23.8964 7.68L23.8844 7.668ZM28.51 7.68C28.446 7.832 28.33 8 28.162 8.184C27.994 8.36 27.774 8.528 27.502 8.688C27.238 8.84 26.918 8.968 26.542 9.072C26.174 9.176 25.762 9.228 25.306 9.228C24.842 9.228 24.45 9.176 24.13 9.072C23.81 8.976 23.55 8.84 23.35 8.664C23.158 8.488 23.026 8.284 22.954 8.052C22.89 7.812 22.878 7.552 22.918 7.272C22.966 6.944 23.086 6.676 23.278 6.468C23.478 6.26 23.698 6.096 23.938 5.976C24.178 5.856 24.418 5.776 24.658 5.736C24.898 5.688 25.09 5.664 25.234 5.664C25.378 5.664 25.538 5.68 25.714 5.712C25.89 5.744 26.054 5.796 26.206 5.868C26.366 5.94 26.498 6.036 26.602 6.156C26.706 6.276 26.758 6.428 26.758 6.612C26.758 6.796 26.718 6.968 26.638 7.128C26.558 7.28 26.45 7.42 26.314 7.548C26.178 7.668 26.022 7.772 25.846 7.86C25.67 7.94 25.486 8 25.294 8.04C25.014 8.104 24.782 8.136 24.598 8.136C24.686 8.224 24.794 8.3 24.922 8.364C25.058 8.42 25.21 8.448 25.378 8.448C25.746 8.448 26.074 8.408 26.362 8.328C26.65 8.248 26.89 8.156 27.082 8.052C27.282 7.94 27.438 7.828 27.55 7.716C27.662 7.604 27.726 7.524 27.742 7.476C27.83 7.244 27.91 7.092 27.982 7.02C28.062 6.94 28.19 6.92 28.366 6.96C28.454 6.976 28.514 7.056 28.546 7.2C28.586 7.344 28.574 7.504 28.51 7.68ZM25.486 6.816C25.454 6.744 25.39 6.7 25.294 6.684C25.198 6.668 25.058 6.684 24.874 6.732C24.714 6.772 24.59 6.848 24.502 6.96C24.414 7.064 24.358 7.184 24.334 7.32C24.446 7.336 24.57 7.348 24.706 7.356C24.85 7.356 24.998 7.324 25.15 7.26C25.302 7.196 25.406 7.124 25.462 7.044C25.518 6.964 25.526 6.888 25.486 6.816ZM32.8584 7.68C32.8424 7.728 32.7984 7.808 32.7264 7.92C32.6624 8.024 32.5704 8.14 32.4504 8.268C32.3384 8.388 32.2024 8.508 32.0424 8.628C31.8904 8.74 31.7144 8.828 31.5144 8.892C31.3224 8.948 31.1104 8.968 30.8784 8.952C30.6464 8.936 30.3984 8.86 30.1344 8.724C29.9024 8.604 29.7304 8.46 29.6184 8.292C29.5144 8.116 29.4424 7.94 29.4024 7.764C29.3624 7.588 29.3424 7.428 29.3424 7.284C29.3504 7.14 29.3504 7.032 29.3424 6.96C29.3344 6.896 29.2904 6.852 29.2104 6.828C29.1384 6.796 29.0544 6.78 28.9584 6.78C28.8704 6.772 28.7904 6.772 28.7184 6.78C28.6464 6.788 28.6104 6.792 28.6104 6.792C28.5784 6.92 28.5464 7.052 28.5144 7.188C28.4824 7.3 28.4464 7.42 28.4064 7.548C28.3664 7.676 28.3184 7.784 28.2624 7.872C28.1584 8.056 28.0584 8.152 27.9624 8.16C27.8664 8.168 27.7624 8.132 27.6504 8.052C27.5864 8.012 27.5504 7.956 27.5424 7.884C27.5264 7.812 27.5264 7.736 27.5424 7.656C27.5504 7.576 27.5664 7.504 27.5904 7.44C27.6144 7.368 27.6344 7.312 27.6504 7.272C27.6664 7.224 27.6904 7.16 27.7224 7.08C27.7624 7 27.7984 6.908 27.8304 6.804C27.8624 6.7 27.8904 6.592 27.9144 6.48C27.9464 6.368 27.9664 6.264 27.9744 6.168C27.9824 6.056 27.9864 5.936 27.9864 5.808C27.9864 5.672 27.9744 5.56 27.9504 5.472C27.9424 5.44 27.9544 5.396 27.9864 5.34C28.0264 5.276 28.0784 5.22 28.1424 5.172C28.2064 5.116 28.2784 5.072 28.3584 5.04C28.4384 5 28.5184 4.984 28.5984 4.992C28.7504 5.008 28.8704 5.06 28.9584 5.148C29.0544 5.236 29.1224 5.392 29.1624 5.616C29.1784 5.704 29.2344 5.744 29.3304 5.736C29.4264 5.728 29.5064 5.724 29.5704 5.724C29.6984 5.724 29.8064 5.732 29.8944 5.748C29.9824 5.764 30.0584 5.788 30.1224 5.82C30.1864 5.844 30.2464 5.876 30.3024 5.916C30.3664 5.956 30.4304 6 30.4944 6.048C30.6224 6.144 30.6784 6.28 30.6624 6.456C30.6464 6.632 30.6224 6.784 30.5904 6.912C30.5744 6.976 30.5584 7.068 30.5424 7.188C30.5264 7.3 30.5264 7.412 30.5424 7.524C30.5664 7.636 30.6184 7.736 30.6984 7.824C30.7784 7.912 30.9104 7.956 31.0944 7.956C31.2784 7.956 31.4304 7.936 31.5504 7.896C31.6784 7.848 31.7784 7.796 31.8504 7.74C31.9224 7.684 31.9744 7.632 32.0064 7.584C32.0464 7.528 32.0664 7.492 32.0664 7.476C32.1544 7.236 32.2384 7.08 32.3184 7.008C32.4064 6.928 32.5384 6.908 32.7144 6.948C32.8024 6.964 32.8624 7.044 32.8944 7.188C32.9344 7.332 32.9224 7.496 32.8584 7.68ZM33.9261 3.804C33.9261 3.836 33.9181 3.896 33.9021 3.984C33.8861 4.072 33.8461 4.164 33.7821 4.26C33.7181 4.348 33.6221 4.428 33.4941 4.5C33.3741 4.564 33.2021 4.588 32.9781 4.572C32.7541 4.556 32.5741 4.516 32.4381 4.452C32.3021 4.38 32.1981 4.3 32.1261 4.212C32.0541 4.116 32.0061 4.02 31.9821 3.924C31.9581 3.82 31.9461 3.728 31.9461 3.648C31.9461 3.576 31.9541 3.496 31.9701 3.408C31.9861 3.312 32.0221 3.224 32.0781 3.144C32.1341 3.056 32.2141 2.984 32.3181 2.928C32.4221 2.872 32.5621 2.844 32.7381 2.844C33.0021 2.844 33.2141 2.888 33.3741 2.976C33.5341 3.064 33.6541 3.164 33.7341 3.276C33.8141 3.388 33.8661 3.496 33.8901 3.6C33.9141 3.704 33.9261 3.772 33.9261 3.804ZM35.4861 7.692C35.4701 7.732 35.4381 7.84 35.3901 8.016C35.3421 8.184 35.2501 8.36 35.1141 8.544C34.9861 8.728 34.8021 8.892 34.5621 9.036C34.3301 9.18 34.0221 9.248 33.6381 9.24C33.3021 9.232 33.0261 9.18 32.8101 9.084C32.5941 8.988 32.4221 8.864 32.2941 8.712C32.1741 8.56 32.0861 8.392 32.0301 8.208C31.9821 8.024 31.9541 7.84 31.9461 7.656C31.9381 7.472 31.9381 7.3 31.9461 7.14C31.9541 6.972 31.9581 6.828 31.9581 6.708C31.9581 6.364 32.0141 6.14 32.1261 6.036C32.2461 5.924 32.4221 5.868 32.6541 5.868C32.7501 5.868 32.8341 5.888 32.9061 5.928C32.9781 5.968 33.0421 6.016 33.0981 6.072C33.1541 6.128 33.1941 6.188 33.2181 6.252C33.2501 6.308 33.2661 6.352 33.2661 6.384C33.2661 6.472 33.2581 6.584 33.2421 6.72C33.2341 6.848 33.2221 7 33.2061 7.176C33.1981 7.264 33.1941 7.372 33.1941 7.5C33.2021 7.62 33.2221 7.74 33.2541 7.86C33.2861 7.972 33.3381 8.072 33.4101 8.16C33.4821 8.248 33.5821 8.3 33.7101 8.316C33.8541 8.332 33.9821 8.308 34.0941 8.244C34.2141 8.172 34.3141 8.088 34.3941 7.992C34.4821 7.888 34.5501 7.788 34.5981 7.692C34.6541 7.596 34.6861 7.528 34.6941 7.488C34.7581 7.248 34.8341 7.092 34.9221 7.02C35.0181 6.94 35.1541 6.92 35.3301 6.96C35.4181 6.976 35.4741 7.056 35.4981 7.2C35.5301 7.336 35.5261 7.496 35.4861 7.68V7.692ZM40.7469 6.948C40.8189 6.964 40.8709 7.028 40.9029 7.14C40.9349 7.244 40.9389 7.372 40.9149 7.524C40.8989 7.676 40.8549 7.84 40.7829 8.016C40.7109 8.184 40.6069 8.34 40.4709 8.484C40.3349 8.628 40.1669 8.748 39.9669 8.844C39.7669 8.94 39.5269 8.984 39.2469 8.976C38.9829 8.968 38.7629 8.932 38.5869 8.868C38.4109 8.804 38.2669 8.728 38.1549 8.64C38.0269 8.552 37.9229 8.444 37.8429 8.316C37.6909 8.444 37.5269 8.556 37.3509 8.652C37.1989 8.74 37.0229 8.82 36.8229 8.892C36.6309 8.956 36.4269 8.988 36.2109 8.988C36.1549 8.988 36.0349 8.972 35.8509 8.94C35.6749 8.908 35.4869 8.844 35.2869 8.748C35.0949 8.644 34.9229 8.496 34.7709 8.304C34.6269 8.112 34.5549 7.86 34.5549 7.548C34.5549 7.236 34.6309 6.96 34.7829 6.72C34.9349 6.472 35.1229 6.268 35.3469 6.108C35.5709 5.94 35.8109 5.816 36.0669 5.736C36.3309 5.656 36.5709 5.616 36.7869 5.616C36.9229 5.616 37.0469 5.628 37.1589 5.652C37.2789 5.668 37.3829 5.688 37.4709 5.712C37.5669 5.744 37.6549 5.776 37.7349 5.808C37.7429 5.816 37.7549 5.816 37.7709 5.808C37.7869 5.808 37.8189 5.792 37.8669 5.76C37.8829 5.752 37.9109 5.736 37.9509 5.712C37.9989 5.688 38.0549 5.676 38.1189 5.676C38.1909 5.668 38.2669 5.672 38.3469 5.688C38.4349 5.704 38.5309 5.744 38.6349 5.808C38.7389 5.872 38.8149 5.94 38.8629 6.012C38.9109 6.076 38.9429 6.14 38.9589 6.204C38.9749 6.26 38.9789 6.312 38.9709 6.36C38.9629 6.408 38.9589 6.444 38.9589 6.468C38.9589 6.492 38.9469 6.544 38.9229 6.624C38.8989 6.696 38.8749 6.78 38.8509 6.876C38.8269 6.972 38.8069 7.076 38.7909 7.188C38.7749 7.3 38.7709 7.408 38.7789 7.512C38.7949 7.72 38.8349 7.856 38.8989 7.92C38.9629 7.984 39.0629 8.032 39.1989 8.064C39.2629 8.08 39.3389 8.084 39.4269 8.076C39.5229 8.06 39.6149 8.028 39.7029 7.98C39.7989 7.932 39.8829 7.868 39.9549 7.788C40.0269 7.708 40.0749 7.608 40.0989 7.488C40.1309 7.336 40.1749 7.22 40.2309 7.14C40.2949 7.06 40.3549 7.004 40.4109 6.972C40.4749 6.94 40.5349 6.928 40.5909 6.936C40.6549 6.936 40.7069 6.94 40.7469 6.948ZM37.5789 7.032C37.5629 7.032 37.5469 7.028 37.5309 7.02C37.4909 6.996 37.4669 6.976 37.4589 6.96C37.4429 6.92 37.4309 6.892 37.4229 6.876C37.4149 6.86 37.3949 6.844 37.3629 6.828C37.2669 6.804 37.1509 6.792 37.0149 6.792C36.8869 6.784 36.7589 6.8 36.6309 6.84C36.5029 6.88 36.3829 6.948 36.2709 7.044C36.1589 7.132 36.0789 7.264 36.0309 7.44C35.9989 7.552 35.9949 7.644 36.0189 7.716C36.0509 7.788 36.0989 7.844 36.1629 7.884C36.2269 7.924 36.2989 7.948 36.3789 7.956C36.4669 7.964 36.5549 7.956 36.6429 7.932C36.8509 7.884 37.0149 7.812 37.1349 7.716C37.2629 7.62 37.3589 7.52 37.4229 7.416C37.5029 7.296 37.5549 7.168 37.5789 7.032ZM44.453 7.692C44.437 7.724 44.385 7.82 44.297 7.98C44.217 8.132 44.085 8.296 43.901 8.472C43.717 8.648 43.477 8.808 43.181 8.952C42.893 9.088 42.537 9.156 42.113 9.156C41.689 9.156 41.337 9.072 41.057 8.904C40.777 8.728 40.553 8.504 40.385 8.232C40.225 7.952 40.109 7.644 40.037 7.308C39.973 6.964 39.941 6.624 39.941 6.288C39.941 6.064 39.953 5.808 39.977 5.52C40.009 5.224 40.053 4.92 40.109 4.608C40.173 4.296 40.257 3.992 40.361 3.696C40.473 3.392 40.609 3.12 40.769 2.88C40.929 2.64 41.117 2.448 41.333 2.304C41.557 2.16 41.813 2.088 42.101 2.088C42.349 2.088 42.549 2.144 42.701 2.256C42.853 2.36 42.965 2.488 43.037 2.64C43.117 2.792 43.169 2.952 43.193 3.12C43.217 3.28 43.229 3.412 43.229 3.516C43.229 3.868 43.153 4.244 43.001 4.644C42.849 5.036 42.665 5.42 42.449 5.796C42.241 6.164 42.029 6.504 41.813 6.816C41.597 7.12 41.429 7.356 41.309 7.524C41.381 7.756 41.493 7.936 41.645 8.064C41.797 8.192 42.005 8.256 42.269 8.256C42.509 8.256 42.713 8.22 42.881 8.148C43.049 8.076 43.189 7.996 43.301 7.908C43.413 7.82 43.497 7.732 43.553 7.644C43.609 7.556 43.645 7.5 43.661 7.476C43.749 7.244 43.833 7.092 43.913 7.02C43.993 6.94 44.121 6.92 44.297 6.96C44.385 6.976 44.445 7.056 44.477 7.2C44.517 7.336 44.505 7.496 44.441 7.68L44.453 7.692ZM42.089 3.228C42.025 3.228 41.957 3.248 41.885 3.288C41.813 3.32 41.741 3.4 41.669 3.528C41.605 3.648 41.541 3.824 41.477 4.056C41.421 4.288 41.369 4.6 41.321 4.992C41.297 5.2 41.277 5.408 41.261 5.616C41.245 5.816 41.233 6.008 41.225 6.192C41.297 6.088 41.377 5.96 41.465 5.808C41.553 5.656 41.637 5.504 41.717 5.352C41.797 5.192 41.869 5.044 41.933 4.908C41.997 4.772 42.041 4.668 42.065 4.596C42.097 4.508 42.129 4.388 42.161 4.236C42.193 4.084 42.213 3.932 42.221 3.78C42.237 3.628 42.237 3.5 42.221 3.396C42.205 3.284 42.165 3.228 42.101 3.228H42.089ZM45.5033 3.804C45.5033 3.836 45.4953 3.896 45.4793 3.984C45.4633 4.072 45.4233 4.164 45.3593 4.26C45.2953 4.348 45.1993 4.428 45.0713 4.5C44.9513 4.564 44.7793 4.588 44.5553 4.572C44.3313 4.556 44.1513 4.516 44.0153 4.452C43.8793 4.38 43.7753 4.3 43.7033 4.212C43.6313 4.116 43.5833 4.02 43.5593 3.924C43.5353 3.82 43.5233 3.728 43.5233 3.648C43.5233 3.576 43.5313 3.496 43.5473 3.408C43.5633 3.312 43.5993 3.224 43.6553 3.144C43.7113 3.056 43.7913 2.984 43.8953 2.928C43.9993 2.872 44.1393 2.844 44.3153 2.844C44.5793 2.844 44.7913 2.888 44.9513 2.976C45.1113 3.064 45.2313 3.164 45.3113 3.276C45.3913 3.388 45.4433 3.496 45.4673 3.6C45.4913 3.704 45.5033 3.772 45.5033 3.804ZM47.0633 7.692C47.0473 7.732 47.0153 7.84 46.9673 8.016C46.9193 8.184 46.8273 8.36 46.6913 8.544C46.5633 8.728 46.3793 8.892 46.1393 9.036C45.9073 9.18 45.5993 9.248 45.2153 9.24C44.8793 9.232 44.6033 9.18 44.3873 9.084C44.1713 8.988 43.9993 8.864 43.8713 8.712C43.7513 8.56 43.6633 8.392 43.6073 8.208C43.5593 8.024 43.5313 7.84 43.5233 7.656C43.5153 7.472 43.5153 7.3 43.5233 7.14C43.5313 6.972 43.5353 6.828 43.5353 6.708C43.5353 6.364 43.5913 6.14 43.7033 6.036C43.8233 5.924 43.9993 5.868 44.2313 5.868C44.3273 5.868 44.4113 5.888 44.4833 5.928C44.5553 5.968 44.6193 6.016 44.6753 6.072C44.7313 6.128 44.7713 6.188 44.7953 6.252C44.8273 6.308 44.8433 6.352 44.8433 6.384C44.8433 6.472 44.8353 6.584 44.8193 6.72C44.8113 6.848 44.7993 7 44.7833 7.176C44.7753 7.264 44.7713 7.372 44.7713 7.5C44.7793 7.62 44.7993 7.74 44.8313 7.86C44.8633 7.972 44.9153 8.072 44.9873 8.16C45.0593 8.248 45.1593 8.3 45.2873 8.316C45.4313 8.332 45.5593 8.308 45.6713 8.244C45.7913 8.172 45.8913 8.088 45.9713 7.992C46.0593 7.888 46.1273 7.788 46.1753 7.692C46.2313 7.596 46.2633 7.528 46.2713 7.488C46.3353 7.248 46.4113 7.092 46.4993 7.02C46.5953 6.94 46.7313 6.92 46.9073 6.96C46.9953 6.976 47.0513 7.056 47.0753 7.2C47.1073 7.336 47.1033 7.496 47.0633 7.68V7.692ZM48.0641 5.472C48.2161 5.472 48.4041 5.496 48.6281 5.544C48.8601 5.584 49.0801 5.664 49.2881 5.784C49.4961 5.904 49.6721 6.068 49.8161 6.276C49.9601 6.484 50.0321 6.748 50.0321 7.068C50.0241 7.324 49.9681 7.552 49.8641 7.752C49.7601 7.944 49.6441 8.108 49.5161 8.244C49.3721 8.404 49.2081 8.544 49.0241 8.664C49.0721 8.696 49.1241 8.728 49.1801 8.76C49.2281 8.792 49.2841 8.832 49.3481 8.88C49.4121 8.92 49.4761 8.972 49.5401 9.036C49.7161 9.044 49.8721 9.072 50.0081 9.12C50.1441 9.168 50.2561 9.216 50.3441 9.264C50.4321 9.32 50.5001 9.372 50.5481 9.42C50.5961 9.476 50.6201 9.516 50.6201 9.54V9.528C50.6201 9.568 50.5841 9.636 50.5121 9.732C50.4481 9.836 50.3121 9.924 50.1041 9.996C50.1361 10.14 50.1441 10.296 50.1281 10.464C50.1121 10.632 50.0641 10.808 49.9841 10.992C49.8161 11.376 49.6121 11.68 49.3721 11.904C49.1321 12.136 48.8801 12.308 48.6161 12.42C48.3601 12.54 48.1041 12.616 47.8481 12.648C47.6001 12.68 47.3841 12.696 47.2001 12.696C47.0161 12.696 46.8401 12.64 46.6721 12.528C46.5121 12.416 46.3761 12.28 46.2641 12.12C46.1521 11.96 46.0721 11.788 46.0241 11.604C45.9761 11.42 45.9721 11.256 46.0121 11.112C46.0521 10.96 46.1281 10.8 46.2401 10.632C46.3601 10.464 46.5081 10.3 46.6841 10.14C46.8681 9.98 47.0761 9.828 47.3081 9.684C47.5481 9.54 47.8121 9.416 48.1001 9.312C48.0361 9.264 47.9641 9.22 47.8841 9.18C47.8041 9.148 47.7121 9.124 47.6081 9.108C47.5201 9.092 47.4201 9.06 47.3081 9.012C47.1961 8.972 47.1321 8.88 47.1161 8.736C47.1001 8.6 47.0921 8.476 47.0921 8.364C47.1001 8.244 47.1721 8.172 47.3081 8.148C47.3721 8.14 47.4761 8.128 47.6201 8.112C47.7641 8.096 47.9161 8.06 48.0761 8.004C48.2361 7.94 48.3841 7.852 48.5201 7.74C48.6561 7.62 48.7521 7.456 48.8081 7.248C48.8721 6.992 48.8201 6.796 48.6521 6.66C48.4841 6.524 48.2841 6.456 48.0521 6.456C47.8281 6.456 47.6521 6.488 47.5241 6.552C47.4041 6.608 47.3081 6.684 47.2361 6.78C47.1721 6.876 47.1241 6.988 47.0921 7.116C47.0601 7.244 47.0201 7.376 46.9721 7.512C46.9161 7.672 46.8601 7.804 46.8041 7.908C46.6921 8.1 46.5881 8.2 46.4921 8.208C46.3961 8.208 46.2921 8.168 46.1801 8.088C46.1161 8.048 46.0801 7.992 46.0721 7.92C46.0561 7.84 46.0521 7.76 46.0601 7.68C46.0681 7.592 46.0841 7.512 46.1081 7.44C46.1321 7.368 46.1521 7.316 46.1681 7.284C46.2721 6.996 46.3641 6.74 46.4441 6.516C46.5321 6.292 46.6361 6.104 46.7561 5.952C46.8841 5.792 47.0481 5.672 47.2481 5.592C47.4481 5.512 47.7201 5.472 48.0641 5.472ZM48.9281 10.092C48.6961 10.108 48.4601 10.144 48.2201 10.2C47.9801 10.264 47.7561 10.384 47.5481 10.56C47.3641 10.704 47.2401 10.852 47.1761 11.004C47.1121 11.164 47.0921 11.304 47.1161 11.424C47.1481 11.544 47.2241 11.636 47.3441 11.7C47.4641 11.764 47.6201 11.776 47.8121 11.736C47.9801 11.704 48.1561 11.64 48.3401 11.544C48.5241 11.448 48.6761 11.328 48.7961 11.184C48.9241 11.04 49.0081 10.876 49.0481 10.692C49.0881 10.508 49.0481 10.308 48.9281 10.092ZM56.1519 6.948C56.2239 6.964 56.2759 7.028 56.3079 7.14C56.3399 7.244 56.3439 7.372 56.3199 7.524C56.3039 7.676 56.2599 7.84 56.1879 8.016C56.1159 8.184 56.0119 8.34 55.8759 8.484C55.7399 8.628 55.5719 8.748 55.3719 8.844C55.1719 8.94 54.9319 8.984 54.6519 8.976C54.3879 8.968 54.1679 8.932 53.9919 8.868C53.8159 8.804 53.6719 8.728 53.5599 8.64C53.4319 8.552 53.3279 8.444 53.2479 8.316C53.0959 8.444 52.9319 8.556 52.7559 8.652C52.6039 8.74 52.4279 8.82 52.2279 8.892C52.0359 8.956 51.8319 8.988 51.6159 8.988C51.5599 8.988 51.4399 8.972 51.2559 8.94C51.0799 8.908 50.8919 8.844 50.6919 8.748C50.4999 8.644 50.3279 8.496 50.1759 8.304C50.0319 8.112 49.9599 7.86 49.9599 7.548C49.9599 7.236 50.0359 6.96 50.1879 6.72C50.3399 6.472 50.5279 6.268 50.7519 6.108C50.9759 5.94 51.2159 5.816 51.4719 5.736C51.7359 5.656 51.9759 5.616 52.1919 5.616C52.3279 5.616 52.4519 5.628 52.5639 5.652C52.6839 5.668 52.7879 5.688 52.8759 5.712C52.9719 5.744 53.0599 5.776 53.1399 5.808C53.1479 5.816 53.1599 5.816 53.1759 5.808C53.1919 5.808 53.2239 5.792 53.2719 5.76C53.2879 5.752 53.3159 5.736 53.3559 5.712C53.4039 5.688 53.4599 5.676 53.5239 5.676C53.5959 5.668 53.6719 5.672 53.7519 5.688C53.8399 5.704 53.9359 5.744 54.0399 5.808C54.1439 5.872 54.2199 5.94 54.2679 6.012C54.3159 6.076 54.3479 6.14 54.3639 6.204C54.3799 6.26 54.3839 6.312 54.3759 6.36C54.3679 6.408 54.3639 6.444 54.3639 6.468C54.3639 6.492 54.3519 6.544 54.3279 6.624C54.3039 6.696 54.2799 6.78 54.2559 6.876C54.2319 6.972 54.2119 7.076 54.1959 7.188C54.1799 7.3 54.1759 7.408 54.1839 7.512C54.1999 7.72 54.2399 7.856 54.3039 7.92C54.3679 7.984 54.4679 8.032 54.6039 8.064C54.6679 8.08 54.7439 8.084 54.8319 8.076C54.9279 8.06 55.0199 8.028 55.1079 7.98C55.2039 7.932 55.2879 7.868 55.3599 7.788C55.4319 7.708 55.4799 7.608 55.5039 7.488C55.5359 7.336 55.5799 7.22 55.6359 7.14C55.6999 7.06 55.7599 7.004 55.8159 6.972C55.8799 6.94 55.9399 6.928 55.9959 6.936C56.0599 6.936 56.1119 6.94 56.1519 6.948ZM52.9839 7.032C52.9679 7.032 52.9519 7.028 52.9359 7.02C52.8959 6.996 52.8719 6.976 52.8639 6.96C52.8479 6.92 52.8359 6.892 52.8279 6.876C52.8199 6.86 52.7999 6.844 52.7679 6.828C52.6719 6.804 52.5559 6.792 52.4199 6.792C52.2919 6.784 52.1639 6.8 52.0359 6.84C51.9079 6.88 51.7879 6.948 51.6759 7.044C51.5639 7.132 51.4839 7.264 51.4359 7.44C51.4039 7.552 51.3999 7.644 51.4239 7.716C51.4559 7.788 51.5039 7.844 51.5679 7.884C51.6319 7.924 51.7039 7.948 51.7839 7.956C51.8719 7.964 51.9599 7.956 52.0479 7.932C52.2559 7.884 52.4199 7.812 52.5399 7.716C52.6679 7.62 52.7639 7.52 52.8279 7.416C52.9079 7.296 52.9599 7.168 52.9839 7.032ZM63.182 7.656C63.038 7.96 62.878 8.208 62.702 8.4C62.534 8.584 62.362 8.728 62.186 8.832C62.018 8.936 61.854 9.004 61.694 9.036C61.542 9.076 61.414 9.096 61.31 9.096C61.246 9.096 61.154 9.088 61.034 9.072C60.914 9.064 60.786 9.036 60.65 8.988C60.514 8.94 60.378 8.872 60.242 8.784C60.106 8.696 59.994 8.572 59.906 8.412C59.81 8.244 59.746 8.088 59.714 7.944C59.682 7.792 59.662 7.656 59.654 7.536C59.654 7.416 59.65 7.32 59.642 7.248C59.634 7.168 59.602 7.116 59.546 7.092C59.474 7.06 59.398 7.108 59.318 7.236C59.238 7.364 59.162 7.516 59.09 7.692C59.026 7.868 58.966 8.044 58.91 8.22C58.862 8.388 58.83 8.5 58.814 8.556C58.798 8.604 58.786 8.66 58.778 8.724C58.778 8.78 58.762 8.836 58.73 8.892C58.706 8.94 58.658 8.984 58.586 9.024C58.514 9.064 58.402 9.088 58.25 9.096C57.994 9.072 57.806 8.988 57.686 8.844C57.574 8.7 57.526 8.56 57.542 8.424C57.566 8.168 57.582 7.936 57.59 7.728C57.598 7.552 57.59 7.392 57.566 7.248C57.55 7.096 57.506 7.012 57.434 6.996C57.354 6.98 57.266 7.036 57.17 7.164C57.082 7.284 56.998 7.432 56.918 7.608C56.838 7.784 56.77 7.964 56.714 8.148C56.666 8.324 56.642 8.46 56.642 8.556C56.642 8.596 56.63 8.652 56.606 8.724C56.59 8.796 56.55 8.868 56.486 8.94C56.43 9.004 56.346 9.052 56.234 9.084C56.13 9.116 55.99 9.108 55.814 9.06C55.71 9.02 55.626 8.932 55.562 8.796C55.498 8.652 55.446 8.484 55.406 8.292C55.374 8.1 55.35 7.896 55.334 7.68C55.326 7.464 55.322 7.256 55.322 7.056C55.322 6.856 55.322 6.68 55.322 6.528C55.33 6.368 55.338 6.252 55.346 6.18C55.362 5.972 55.426 5.84 55.538 5.784C55.65 5.728 55.846 5.72 56.126 5.76C56.254 5.776 56.346 5.82 56.402 5.892C56.458 5.964 56.49 6.044 56.498 6.132C56.514 6.22 56.514 6.308 56.498 6.396C56.49 6.476 56.486 6.532 56.486 6.564C56.55 6.556 56.618 6.512 56.69 6.432C56.77 6.344 56.862 6.248 56.966 6.144C57.07 6.04 57.19 5.948 57.326 5.868C57.462 5.78 57.622 5.736 57.806 5.736C57.982 5.736 58.126 5.78 58.238 5.868C58.358 5.956 58.45 6.056 58.514 6.168C58.586 6.28 58.638 6.384 58.67 6.48C58.702 6.576 58.726 6.632 58.742 6.648C58.766 6.648 58.798 6.624 58.838 6.576C58.878 6.528 58.926 6.468 58.982 6.396C59.038 6.324 59.106 6.244 59.186 6.156C59.266 6.068 59.362 5.976 59.474 5.88C59.57 5.776 59.674 5.712 59.786 5.688C59.906 5.656 60.018 5.648 60.122 5.664C60.234 5.68 60.334 5.708 60.422 5.748C60.51 5.788 60.582 5.824 60.638 5.856C60.75 5.936 60.838 6.044 60.902 6.18C60.966 6.308 60.966 6.48 60.902 6.696C60.87 6.792 60.846 6.924 60.83 7.092C60.822 7.26 60.834 7.424 60.866 7.584C60.898 7.744 60.954 7.88 61.034 7.992C61.122 8.104 61.25 8.156 61.418 8.148C61.57 8.14 61.706 8.104 61.826 8.04C61.946 7.976 62.046 7.908 62.126 7.836C62.214 7.756 62.278 7.68 62.318 7.608C62.366 7.536 62.394 7.492 62.402 7.476C62.498 7.236 62.59 7.084 62.678 7.02C62.766 6.948 62.898 6.932 63.074 6.972C63.162 6.996 63.218 7.084 63.242 7.236C63.274 7.38 63.258 7.52 63.194 7.656H63.182ZM68.5082 6.168C68.5562 6.216 68.5722 6.304 68.5562 6.432C68.5402 6.552 68.4882 6.684 68.4002 6.828C68.3202 6.972 68.2042 7.112 68.0522 7.248C67.9002 7.384 67.7122 7.484 67.4882 7.548C67.3522 7.588 67.1882 7.628 66.9962 7.668C66.8042 7.7 66.5962 7.712 66.3722 7.704C66.3242 7.856 66.2322 8.008 66.0962 8.16C65.9682 8.304 65.8002 8.436 65.5922 8.556C65.3922 8.668 65.1602 8.76 64.8962 8.832C64.6402 8.904 64.3602 8.94 64.0562 8.94C63.7202 8.94 63.4322 8.896 63.1922 8.808C62.9602 8.712 62.7722 8.592 62.6282 8.448C62.4842 8.296 62.3802 8.124 62.3162 7.932C62.2522 7.74 62.2202 7.54 62.2202 7.332C62.2202 7.132 62.2802 6.928 62.4002 6.72C62.5202 6.504 62.6842 6.312 62.8922 6.144C63.1002 5.968 63.3442 5.828 63.6242 5.724C63.9042 5.612 64.2082 5.556 64.5362 5.556C64.7362 5.556 64.9082 5.58 65.0522 5.628C65.1962 5.668 65.3162 5.708 65.4122 5.748C65.7402 5.892 65.9722 6.044 66.1082 6.204C66.1882 6.292 66.2442 6.376 66.2762 6.456C66.3162 6.496 66.3602 6.54 66.4082 6.588C66.4562 6.628 66.5242 6.668 66.6122 6.708C66.6682 6.732 66.7442 6.752 66.8402 6.768C66.9442 6.784 67.0482 6.792 67.1522 6.792C67.2642 6.784 67.3682 6.768 67.4642 6.744C67.5602 6.712 67.6402 6.664 67.7042 6.6C67.8882 6.424 68.0482 6.288 68.1842 6.192C68.3202 6.096 68.4282 6.088 68.5082 6.168ZM65.1362 7.488C65.0642 7.448 64.9962 7.392 64.9322 7.32C64.8762 7.248 64.8242 7.152 64.7762 7.032C64.7602 6.976 64.7402 6.92 64.7162 6.864C64.7002 6.808 64.6842 6.748 64.6682 6.684C64.6202 6.676 64.5802 6.672 64.5482 6.672C64.5162 6.672 64.4802 6.672 64.4402 6.672C64.3922 6.672 64.3202 6.688 64.2242 6.72C64.1282 6.752 64.0322 6.8 63.9362 6.864C63.8482 6.92 63.7682 6.996 63.6962 7.092C63.6242 7.188 63.5882 7.304 63.5882 7.44C63.5882 7.576 63.6162 7.68 63.6722 7.752C63.7282 7.824 63.7922 7.876 63.8642 7.908C63.9442 7.932 64.0202 7.948 64.0922 7.956C64.1722 7.956 64.2322 7.956 64.2722 7.956C64.3042 7.956 64.3562 7.952 64.4282 7.944C64.5082 7.936 64.5922 7.916 64.6802 7.884C64.7762 7.852 64.8642 7.808 64.9442 7.752C65.0322 7.688 65.1002 7.604 65.1482 7.5L65.1362 7.488ZM70.9471 7.692L70.9351 7.68C70.9351 7.968 70.8711 8.2 70.7431 8.376C70.6231 8.552 70.4831 8.688 70.3231 8.784C70.1711 8.88 70.0231 8.948 69.8791 8.988C69.7351 9.02 69.6391 9.036 69.5911 9.036C69.5431 9.036 69.4511 9.04 69.3151 9.048C69.1871 9.056 69.0351 9.048 68.8591 9.024C68.6831 9 68.4871 8.952 68.2711 8.88C68.0631 8.8 67.8591 8.676 67.6591 8.508C67.5711 8.444 67.5271 8.364 67.5271 8.268C67.4871 8.26 67.4471 8.236 67.4071 8.196C67.3271 8.116 67.2951 8 67.3111 7.848C67.3271 7.696 67.3791 7.524 67.4671 7.332C67.5231 7.204 67.5711 7.104 67.6111 7.032C67.6511 6.952 67.6831 6.884 67.7071 6.828C67.7391 6.764 67.7671 6.704 67.7911 6.648C67.8151 6.584 67.8391 6.5 67.8631 6.396C67.7751 6.284 67.7271 6.172 67.7191 6.06C67.7191 5.948 67.7191 5.86 67.7191 5.796C67.7191 5.748 67.7311 5.688 67.7551 5.616C67.7871 5.544 67.8311 5.476 67.8871 5.412C67.9431 5.34 68.0031 5.28 68.0671 5.232C68.1391 5.176 68.2191 5.148 68.3071 5.148C68.3951 5.148 68.4671 5.164 68.5231 5.196C68.5871 5.228 68.6391 5.268 68.6791 5.316C68.7271 5.364 68.7591 5.412 68.7751 5.46C68.7991 5.5 68.8151 5.532 68.8231 5.556C68.8391 5.604 68.8631 5.664 68.8951 5.736C68.9351 5.8 68.9991 5.856 69.0871 5.904C69.1111 5.92 69.1751 5.948 69.2791 5.988C69.3831 6.028 69.5031 6.084 69.6391 6.156C69.7831 6.228 69.9311 6.312 70.0831 6.408C70.2351 6.504 70.3751 6.616 70.5031 6.744C70.6311 6.872 70.7351 7.016 70.8151 7.176C70.9031 7.328 70.9471 7.5 70.9471 7.692ZM69.6151 7.68V7.668C69.6391 7.564 69.6191 7.472 69.5551 7.392C69.4991 7.312 69.4151 7.24 69.3031 7.176C69.1991 7.104 69.0791 7.04 68.9431 6.984C68.8071 6.928 68.6711 6.876 68.5351 6.828C68.4951 7.044 68.4471 7.248 68.3911 7.44C68.3431 7.632 68.2751 7.78 68.1871 7.884L68.1631 7.932C68.2031 7.94 68.2431 7.952 68.2831 7.968C68.3231 7.976 68.3671 7.988 68.4151 8.004C68.5351 8.036 68.6591 8.06 68.7871 8.076C68.9151 8.092 69.0351 8.092 69.1471 8.076C69.2671 8.06 69.3671 8.02 69.4471 7.956C69.5351 7.892 69.5911 7.8 69.6151 7.68ZM78.1577 7.668C78.1337 7.74 78.0777 7.848 77.9897 7.992C77.9097 8.136 77.7977 8.28 77.6537 8.424C77.5097 8.568 77.3337 8.696 77.1257 8.808C76.9177 8.912 76.6777 8.964 76.4057 8.964C76.0617 8.964 75.7777 8.9 75.5537 8.772C75.3297 8.644 75.1497 8.48 75.0137 8.28C74.8857 8.072 74.7977 7.844 74.7497 7.596C74.7017 7.34 74.6777 7.092 74.6777 6.852C74.6777 6.644 74.6857 6.4 74.7017 6.12C74.7177 5.832 74.7337 5.548 74.7497 5.268C74.5017 5.268 74.2697 5.268 74.0537 5.268C73.8377 5.268 73.6937 5.26 73.6217 5.244C73.5657 5.228 73.5177 5.204 73.4777 5.172C73.4297 5.14 73.4017 5.08 73.3937 4.992C73.3937 4.952 73.4057 4.896 73.4297 4.824C73.4537 4.752 73.4857 4.7 73.5257 4.668C73.5737 4.62 73.6537 4.572 73.7657 4.524C73.8697 4.476 73.9897 4.448 74.1257 4.44L74.8217 4.416C74.8377 4.304 74.8457 4.212 74.8457 4.14C74.8537 4.068 74.8617 4.02 74.8697 3.996C74.8777 3.94 74.8817 3.868 74.8817 3.78C74.8897 3.692 74.8977 3.6 74.9057 3.504C74.9137 3.408 74.9217 3.32 74.9297 3.24C74.9457 3.152 74.9657 3.076 74.9897 3.012C75.0377 2.884 75.1137 2.78 75.2177 2.7C75.3217 2.612 75.4417 2.564 75.5777 2.556C75.7137 2.556 75.8137 2.596 75.8777 2.676C75.9497 2.756 76.0057 2.816 76.0457 2.856C76.0857 2.888 76.1297 2.96 76.1777 3.072C76.2337 3.176 76.2417 3.328 76.2017 3.528C76.1857 3.6 76.1657 3.712 76.1417 3.864C76.1257 4.016 76.1017 4.188 76.0697 4.38C76.3257 4.364 76.4977 4.364 76.5857 4.38C76.7457 4.38 76.8697 4.38 76.9577 4.38C77.0537 4.372 77.1497 4.388 77.2457 4.428C77.3337 4.468 77.3777 4.512 77.3777 4.56C77.3777 4.608 77.3697 4.66 77.3537 4.716C77.3457 4.764 77.3017 4.844 77.2217 4.956C77.1497 5.06 77.0337 5.12 76.8737 5.136C76.7857 5.144 76.6577 5.16 76.4897 5.184C76.3297 5.208 76.1577 5.228 75.9737 5.244C75.9497 5.46 75.9257 5.66 75.9017 5.844C75.8857 6.028 75.8697 6.176 75.8537 6.288C75.8377 6.432 75.8257 6.608 75.8177 6.816C75.8177 7.016 75.8337 7.212 75.8657 7.404C75.9057 7.588 75.9697 7.748 76.0577 7.884C76.1537 8.012 76.2937 8.076 76.4777 8.076C76.6617 8.076 76.8097 8.048 76.9217 7.992C77.0417 7.936 77.1337 7.872 77.1977 7.8C77.2617 7.728 77.3057 7.66 77.3297 7.596C77.3537 7.532 77.3697 7.492 77.3777 7.476C77.4817 7.228 77.5697 7.072 77.6417 7.008C77.7137 6.936 77.8377 6.92 78.0137 6.96C78.1017 6.984 78.1657 7.068 78.2057 7.212C78.2537 7.348 78.2417 7.504 78.1697 7.68L78.1577 7.668ZM83.2993 7.692C83.2833 7.74 83.2353 7.832 83.1553 7.968C83.0753 8.104 82.9593 8.244 82.8073 8.388C82.6553 8.524 82.4593 8.648 82.2193 8.76C81.9873 8.864 81.7113 8.916 81.3913 8.916C81.1593 8.916 80.9513 8.884 80.7673 8.82C80.5913 8.756 80.4433 8.68 80.3233 8.592C80.1793 8.504 80.0553 8.396 79.9513 8.268C79.8393 8.404 79.7113 8.524 79.5673 8.628C79.4473 8.716 79.2993 8.796 79.1233 8.868C78.9553 8.94 78.7673 8.976 78.5593 8.976C78.3513 8.976 78.1633 8.936 77.9953 8.856C77.8353 8.776 77.6953 8.672 77.5753 8.544C77.4633 8.408 77.3753 8.26 77.3113 8.1C77.2473 7.94 77.2153 7.784 77.2153 7.632C77.2153 7.48 77.2193 7.312 77.2273 7.128C77.2353 6.936 77.2473 6.756 77.2633 6.588C77.2873 6.412 77.3153 6.26 77.3473 6.132C77.3873 6.004 77.4353 5.92 77.4913 5.88C77.6033 5.816 77.7033 5.78 77.7913 5.772C77.8793 5.764 77.9473 5.764 77.9953 5.772C78.0193 5.772 78.0593 5.776 78.1153 5.784C78.1793 5.784 78.2433 5.8 78.3073 5.832C78.3713 5.864 78.4233 5.92 78.4633 6C78.5113 6.072 78.5273 6.18 78.5113 6.324C78.4713 6.62 78.4353 6.84 78.4033 6.984C78.3793 7.128 78.3673 7.252 78.3673 7.356C78.3673 7.404 78.3793 7.46 78.4033 7.524C78.4353 7.58 78.4753 7.64 78.5233 7.704C78.5713 7.76 78.6313 7.808 78.7033 7.848C78.7833 7.888 78.8713 7.908 78.9673 7.908C79.1673 7.9 79.3513 7.792 79.5193 7.584C79.6873 7.376 79.7913 7.104 79.8313 6.768C79.8393 6.712 79.8473 6.636 79.8553 6.54C79.8713 6.436 79.8873 6.336 79.9033 6.24C79.9193 6.136 79.9393 6.048 79.9633 5.976C79.9873 5.896 80.0113 5.844 80.0353 5.82C80.0833 5.78 80.1713 5.748 80.2993 5.724C80.4353 5.7 80.5513 5.7 80.6473 5.724C80.7513 5.748 80.8593 5.82 80.9713 5.94C81.0833 6.06 81.1273 6.2 81.1033 6.36C81.0873 6.44 81.0673 6.544 81.0433 6.672C81.0273 6.8 81.0153 6.932 81.0073 7.068C80.9993 7.196 80.9993 7.32 81.0073 7.44C81.0153 7.56 81.0393 7.652 81.0793 7.716C81.1673 7.844 81.2753 7.944 81.4033 8.016C81.5393 8.08 81.7393 8.052 82.0033 7.932C82.1633 7.86 82.2793 7.784 82.3513 7.704C82.4313 7.616 82.4873 7.536 82.5193 7.464C82.5753 7.36 82.6233 7.272 82.6633 7.2C82.7113 7.12 82.7553 7.06 82.7953 7.02C82.8353 6.98 82.8833 6.956 82.9393 6.948C82.9953 6.932 83.0673 6.936 83.1553 6.96C83.2433 6.984 83.3073 7.068 83.3473 7.212C83.3953 7.348 83.3833 7.504 83.3113 7.68L83.2993 7.692ZM85.8716 7.692L85.8596 7.68C85.8596 7.968 85.7956 8.2 85.6676 8.376C85.5476 8.552 85.4076 8.688 85.2476 8.784C85.0956 8.88 84.9476 8.948 84.8036 8.988C84.6596 9.02 84.5636 9.036 84.5156 9.036C84.4676 9.036 84.3756 9.04 84.2396 9.048C84.1116 9.056 83.9596 9.048 83.7836 9.024C83.6076 9 83.4116 8.952 83.1956 8.88C82.9876 8.8 82.7836 8.676 82.5836 8.508C82.4956 8.444 82.4516 8.364 82.4516 8.268C82.4116 8.26 82.3716 8.236 82.3316 8.196C82.2516 8.116 82.2196 8 82.2356 7.848C82.2516 7.696 82.3036 7.524 82.3916 7.332C82.4476 7.204 82.4956 7.104 82.5356 7.032C82.5756 6.952 82.6076 6.884 82.6316 6.828C82.6636 6.764 82.6916 6.704 82.7156 6.648C82.7396 6.584 82.7636 6.5 82.7876 6.396C82.6996 6.284 82.6516 6.172 82.6436 6.06C82.6436 5.948 82.6436 5.86 82.6436 5.796C82.6436 5.748 82.6556 5.688 82.6796 5.616C82.7116 5.544 82.7556 5.476 82.8116 5.412C82.8676 5.34 82.9276 5.28 82.9916 5.232C83.0636 5.176 83.1436 5.148 83.2316 5.148C83.3196 5.148 83.3916 5.164 83.4476 5.196C83.5116 5.228 83.5636 5.268 83.6036 5.316C83.6516 5.364 83.6836 5.412 83.6996 5.46C83.7236 5.5 83.7396 5.532 83.7476 5.556C83.7636 5.604 83.7876 5.664 83.8196 5.736C83.8596 5.8 83.9236 5.856 84.0116 5.904C84.0356 5.92 84.0996 5.948 84.2036 5.988C84.3076 6.028 84.4276 6.084 84.5636 6.156C84.7076 6.228 84.8556 6.312 85.0076 6.408C85.1596 6.504 85.2996 6.616 85.4276 6.744C85.5556 6.872 85.6596 7.016 85.7396 7.176C85.8276 7.328 85.8716 7.5 85.8716 7.692ZM84.5396 7.68V7.668C84.5636 7.564 84.5436 7.472 84.4796 7.392C84.4236 7.312 84.3396 7.24 84.2276 7.176C84.1236 7.104 84.0036 7.04 83.8676 6.984C83.7316 6.928 83.5956 6.876 83.4596 6.828C83.4196 7.044 83.3716 7.248 83.3156 7.44C83.2676 7.632 83.1996 7.78 83.1116 7.884L83.0876 7.932C83.1276 7.94 83.1676 7.952 83.2076 7.968C83.2476 7.976 83.2916 7.988 83.3396 8.004C83.4596 8.036 83.5836 8.06 83.7116 8.076C83.8396 8.092 83.9596 8.092 84.0716 8.076C84.1916 8.06 84.2916 8.02 84.3716 7.956C84.4596 7.892 84.5156 7.8 84.5396 7.68ZM91.5702 3.804C91.5702 3.836 91.5622 3.896 91.5462 3.984C91.5302 4.072 91.4902 4.164 91.4262 4.26C91.3622 4.348 91.2662 4.428 91.1382 4.5C91.0182 4.564 90.8462 4.588 90.6222 4.572C90.3982 4.556 90.2182 4.516 90.0822 4.452C89.9462 4.38 89.8422 4.3 89.7702 4.212C89.6982 4.116 89.6502 4.02 89.6262 3.924C89.6022 3.82 89.5902 3.728 89.5902 3.648C89.5902 3.576 89.5982 3.496 89.6142 3.408C89.6302 3.312 89.6662 3.224 89.7222 3.144C89.7782 3.056 89.8582 2.984 89.9622 2.928C90.0662 2.872 90.2062 2.844 90.3822 2.844C90.6462 2.844 90.8582 2.888 91.0182 2.976C91.1782 3.064 91.2982 3.164 91.3782 3.276C91.4582 3.388 91.5102 3.496 91.5342 3.6C91.5582 3.704 91.5702 3.772 91.5702 3.804ZM93.1302 7.692C93.1142 7.732 93.0822 7.84 93.0342 8.016C92.9862 8.184 92.8942 8.36 92.7582 8.544C92.6302 8.728 92.4462 8.892 92.2062 9.036C91.9742 9.18 91.6662 9.248 91.2822 9.24C90.9462 9.232 90.6702 9.18 90.4542 9.084C90.2382 8.988 90.0662 8.864 89.9382 8.712C89.8182 8.56 89.7302 8.392 89.6742 8.208C89.6262 8.024 89.5982 7.84 89.5902 7.656C89.5822 7.472 89.5822 7.3 89.5902 7.14C89.5982 6.972 89.6022 6.828 89.6022 6.708C89.6022 6.364 89.6582 6.14 89.7702 6.036C89.8902 5.924 90.0662 5.868 90.2982 5.868C90.3942 5.868 90.4782 5.888 90.5502 5.928C90.6222 5.968 90.6862 6.016 90.7422 6.072C90.7982 6.128 90.8382 6.188 90.8622 6.252C90.8942 6.308 90.9102 6.352 90.9102 6.384C90.9102 6.472 90.9022 6.584 90.8862 6.72C90.8782 6.848 90.8662 7 90.8502 7.176C90.8422 7.264 90.8382 7.372 90.8382 7.5C90.8462 7.62 90.8662 7.74 90.8982 7.86C90.9302 7.972 90.9822 8.072 91.0542 8.16C91.1262 8.248 91.2262 8.3 91.3542 8.316C91.4982 8.332 91.6262 8.308 91.7382 8.244C91.8582 8.172 91.9582 8.088 92.0382 7.992C92.1262 7.888 92.1942 7.788 92.2422 7.692C92.2982 7.596 92.3302 7.528 92.3382 7.488C92.4022 7.248 92.4782 7.092 92.5662 7.02C92.6622 6.94 92.7982 6.92 92.9742 6.96C93.0622 6.976 93.1182 7.056 93.1422 7.2C93.1742 7.336 93.1702 7.496 93.1302 7.68V7.692ZM99.003 7.68C98.979 7.8 98.907 7.944 98.787 8.112C98.675 8.272 98.515 8.428 98.307 8.58C98.107 8.732 97.863 8.86 97.575 8.964C97.287 9.06 96.955 9.108 96.579 9.108C96.203 9.108 95.911 9.036 95.703 8.892C95.503 8.74 95.351 8.584 95.247 8.424C95.095 8.592 94.943 8.724 94.791 8.82C94.647 8.908 94.507 8.972 94.371 9.012C94.235 9.06 94.107 9.088 93.987 9.096C93.875 9.112 93.775 9.12 93.687 9.12C93.511 9.12 93.327 9.092 93.135 9.036C92.951 8.98 92.779 8.892 92.619 8.772C92.467 8.644 92.339 8.48 92.235 8.28C92.131 8.072 92.079 7.82 92.079 7.524C92.079 7.236 92.131 6.98 92.235 6.756C92.347 6.524 92.499 6.332 92.691 6.18C92.883 6.028 93.111 5.912 93.375 5.832C93.639 5.752 93.927 5.712 94.239 5.712C94.471 5.712 94.675 5.728 94.851 5.76C95.027 5.792 95.183 5.836 95.319 5.892V5.844C95.319 4.98 95.363 4.304 95.451 3.816C95.547 3.328 95.659 2.968 95.787 2.736C95.915 2.496 96.043 2.348 96.171 2.292C96.307 2.236 96.411 2.208 96.483 2.208C96.555 2.208 96.631 2.22 96.711 2.244C96.799 2.268 96.871 2.344 96.927 2.472C96.983 2.592 97.011 2.78 97.011 3.036C97.019 3.292 96.983 3.652 96.903 4.116C96.839 4.484 96.771 4.824 96.699 5.136C96.635 5.448 96.563 5.736 96.483 6C96.427 6.376 96.383 6.696 96.351 6.96C96.319 7.224 96.319 7.44 96.351 7.608C96.383 7.776 96.451 7.904 96.555 7.992C96.659 8.072 96.823 8.12 97.047 8.136C97.239 8.152 97.407 8.132 97.551 8.076C97.695 8.012 97.815 7.94 97.911 7.86C98.007 7.78 98.079 7.704 98.127 7.632C98.183 7.552 98.211 7.504 98.211 7.488C98.275 7.248 98.351 7.092 98.439 7.02C98.535 6.948 98.671 6.932 98.847 6.972C98.935 6.996 98.991 7.076 99.015 7.212C99.047 7.34 99.043 7.496 99.003 7.68ZM95.007 7.008C94.887 6.952 94.759 6.908 94.623 6.876C94.495 6.844 94.363 6.844 94.227 6.876C93.875 6.948 93.655 7.068 93.567 7.236C93.487 7.404 93.487 7.584 93.567 7.776C93.591 7.84 93.655 7.888 93.759 7.92C93.871 7.952 93.995 7.956 94.131 7.932C94.275 7.908 94.415 7.848 94.551 7.752C94.695 7.648 94.815 7.496 94.911 7.296C94.927 7.264 94.943 7.224 94.959 7.176C94.975 7.128 94.991 7.072 95.007 7.008ZM103.727 7.68C103.663 7.832 103.547 8 103.379 8.184C103.211 8.36 102.991 8.528 102.719 8.688C102.455 8.84 102.135 8.968 101.759 9.072C101.391 9.176 100.979 9.228 100.523 9.228C100.059 9.228 99.667 9.176 99.347 9.072C99.027 8.976 98.767 8.84 98.567 8.664C98.375 8.488 98.243 8.284 98.171 8.052C98.107 7.812 98.095 7.552 98.135 7.272C98.183 6.944 98.303 6.676 98.495 6.468C98.695 6.26 98.915 6.096 99.155 5.976C99.395 5.856 99.635 5.776 99.875 5.736C100.115 5.688 100.307 5.664 100.451 5.664C100.595 5.664 100.755 5.68 100.931 5.712C101.107 5.744 101.271 5.796 101.423 5.868C101.583 5.94 101.715 6.036 101.819 6.156C101.923 6.276 101.975 6.428 101.975 6.612C101.975 6.796 101.935 6.968 101.855 7.128C101.775 7.28 101.667 7.42 101.531 7.548C101.395 7.668 101.239 7.772 101.063 7.86C100.887 7.94 100.703 8 100.511 8.04C100.231 8.104 99.999 8.136 99.815 8.136C99.903 8.224 100.011 8.3 100.139 8.364C100.275 8.42 100.427 8.448 100.595 8.448C100.963 8.448 101.291 8.408 101.579 8.328C101.867 8.248 102.107 8.156 102.299 8.052C102.499 7.94 102.655 7.828 102.767 7.716C102.879 7.604 102.943 7.524 102.959 7.476C103.047 7.244 103.127 7.092 103.199 7.02C103.279 6.94 103.407 6.92 103.583 6.96C103.671 6.976 103.731 7.056 103.763 7.2C103.803 7.344 103.791 7.504 103.727 7.68ZM100.703 6.816C100.671 6.744 100.607 6.7 100.511 6.684C100.415 6.668 100.275 6.684 100.091 6.732C99.931 6.772 99.807 6.848 99.719 6.96C99.631 7.064 99.575 7.184 99.551 7.32C99.663 7.336 99.787 7.348 99.923 7.356C100.067 7.356 100.215 7.324 100.367 7.26C100.519 7.196 100.623 7.124 100.679 7.044C100.735 6.964 100.743 6.888 100.703 6.816ZM109.011 6.948C109.083 6.964 109.135 7.028 109.167 7.14C109.199 7.244 109.203 7.372 109.179 7.524C109.163 7.676 109.119 7.84 109.047 8.016C108.975 8.184 108.871 8.34 108.735 8.484C108.599 8.628 108.431 8.748 108.231 8.844C108.031 8.94 107.791 8.984 107.511 8.976C107.247 8.968 107.027 8.932 106.851 8.868C106.675 8.804 106.531 8.728 106.419 8.64C106.291 8.552 106.187 8.444 106.107 8.316C105.955 8.444 105.791 8.556 105.615 8.652C105.463 8.74 105.287 8.82 105.087 8.892C104.895 8.956 104.691 8.988 104.475 8.988C104.419 8.988 104.299 8.972 104.115 8.94C103.939 8.908 103.751 8.844 103.551 8.748C103.359 8.644 103.187 8.496 103.035 8.304C102.891 8.112 102.819 7.86 102.819 7.548C102.819 7.236 102.895 6.96 103.047 6.72C103.199 6.472 103.387 6.268 103.611 6.108C103.835 5.94 104.075 5.816 104.331 5.736C104.595 5.656 104.835 5.616 105.051 5.616C105.187 5.616 105.311 5.628 105.423 5.652C105.543 5.668 105.647 5.688 105.735 5.712C105.831 5.744 105.919 5.776 105.999 5.808C106.007 5.816 106.019 5.816 106.035 5.808C106.051 5.808 106.083 5.792 106.131 5.76C106.147 5.752 106.175 5.736 106.215 5.712C106.263 5.688 106.319 5.676 106.383 5.676C106.455 5.668 106.531 5.672 106.611 5.688C106.699 5.704 106.795 5.744 106.899 5.808C107.003 5.872 107.079 5.94 107.127 6.012C107.175 6.076 107.207 6.14 107.223 6.204C107.239 6.26 107.243 6.312 107.235 6.36C107.227 6.408 107.223 6.444 107.223 6.468C107.223 6.492 107.211 6.544 107.187 6.624C107.163 6.696 107.139 6.78 107.115 6.876C107.091 6.972 107.071 7.076 107.055 7.188C107.039 7.3 107.035 7.408 107.043 7.512C107.059 7.72 107.099 7.856 107.163 7.92C107.227 7.984 107.327 8.032 107.463 8.064C107.527 8.08 107.603 8.084 107.691 8.076C107.787 8.06 107.879 8.028 107.967 7.98C108.063 7.932 108.147 7.868 108.219 7.788C108.291 7.708 108.339 7.608 108.363 7.488C108.395 7.336 108.439 7.22 108.495 7.14C108.559 7.06 108.619 7.004 108.675 6.972C108.739 6.94 108.799 6.928 108.855 6.936C108.919 6.936 108.971 6.94 109.011 6.948ZM105.843 7.032C105.827 7.032 105.811 7.028 105.795 7.02C105.755 6.996 105.731 6.976 105.723 6.96C105.707 6.92 105.695 6.892 105.687 6.876C105.679 6.86 105.659 6.844 105.627 6.828C105.531 6.804 105.415 6.792 105.279 6.792C105.151 6.784 105.023 6.8 104.895 6.84C104.767 6.88 104.647 6.948 104.535 7.044C104.423 7.132 104.343 7.264 104.295 7.44C104.263 7.552 104.259 7.644 104.283 7.716C104.315 7.788 104.363 7.844 104.427 7.884C104.491 7.924 104.563 7.948 104.643 7.956C104.731 7.964 104.819 7.956 104.907 7.932C105.115 7.884 105.279 7.812 105.399 7.716C105.527 7.62 105.623 7.52 105.687 7.416C105.767 7.296 105.819 7.168 105.843 7.032ZM111.71 7.692L111.698 7.68C111.698 7.968 111.634 8.2 111.506 8.376C111.386 8.552 111.246 8.688 111.086 8.784C110.934 8.88 110.786 8.948 110.642 8.988C110.498 9.02 110.402 9.036 110.354 9.036C110.306 9.036 110.214 9.04 110.078 9.048C109.95 9.056 109.798 9.048 109.622 9.024C109.446 9 109.25 8.952 109.034 8.88C108.826 8.8 108.622 8.676 108.422 8.508C108.334 8.444 108.29 8.364 108.29 8.268C108.25 8.26 108.21 8.236 108.17 8.196C108.09 8.116 108.058 8 108.074 7.848C108.09 7.696 108.142 7.524 108.23 7.332C108.286 7.204 108.334 7.104 108.374 7.032C108.414 6.952 108.446 6.884 108.47 6.828C108.502 6.764 108.53 6.704 108.554 6.648C108.578 6.584 108.602 6.5 108.626 6.396C108.538 6.284 108.49 6.172 108.482 6.06C108.482 5.948 108.482 5.86 108.482 5.796C108.482 5.748 108.494 5.688 108.518 5.616C108.55 5.544 108.594 5.476 108.65 5.412C108.706 5.34 108.766 5.28 108.83 5.232C108.902 5.176 108.982 5.148 109.07 5.148C109.158 5.148 109.23 5.164 109.286 5.196C109.35 5.228 109.402 5.268 109.442 5.316C109.49 5.364 109.522 5.412 109.538 5.46C109.562 5.5 109.578 5.532 109.586 5.556C109.602 5.604 109.626 5.664 109.658 5.736C109.698 5.8 109.762 5.856 109.85 5.904C109.874 5.92 109.938 5.948 110.042 5.988C110.146 6.028 110.266 6.084 110.402 6.156C110.546 6.228 110.694 6.312 110.846 6.408C110.998 6.504 111.138 6.616 111.266 6.744C111.394 6.872 111.498 7.016 111.578 7.176C111.666 7.328 111.71 7.5 111.71 7.692ZM110.378 7.68V7.668C110.402 7.564 110.382 7.472 110.318 7.392C110.262 7.312 110.178 7.24 110.066 7.176C109.962 7.104 109.842 7.04 109.706 6.984C109.57 6.928 109.434 6.876 109.298 6.828C109.258 7.044 109.21 7.248 109.154 7.44C109.106 7.632 109.038 7.78 108.95 7.884L108.926 7.932C108.966 7.94 109.006 7.952 109.046 7.968C109.086 7.976 109.13 7.988 109.178 8.004C109.298 8.036 109.422 8.06 109.55 8.076C109.678 8.092 109.798 8.092 109.91 8.076C110.03 8.06 110.13 8.02 110.21 7.956C110.298 7.892 110.354 7.8 110.378 7.68ZM120.864 7.68C120.824 7.792 120.756 7.908 120.66 8.028C120.564 8.14 120.46 8.252 120.348 8.364C120.244 8.468 120.14 8.568 120.036 8.664C119.932 8.752 119.844 8.824 119.772 8.88C119.644 8.984 119.508 9.088 119.364 9.192C119.22 9.304 119.056 9.416 118.872 9.528C118.864 9.728 118.848 9.936 118.824 10.152C118.8 10.368 118.764 10.58 118.716 10.788C118.668 11.004 118.604 11.208 118.524 11.4C118.444 11.592 118.344 11.764 118.224 11.916C117.848 12.388 117.416 12.628 116.928 12.636C116.448 12.644 115.992 12.404 115.56 11.916C115.456 11.796 115.396 11.66 115.38 11.508C115.372 11.364 115.388 11.216 115.428 11.064C115.476 10.912 115.54 10.76 115.62 10.608C115.708 10.464 115.796 10.332 115.884 10.212C115.98 10.092 116.068 9.988 116.148 9.9C116.236 9.812 116.304 9.752 116.352 9.72C116.544 9.584 116.764 9.448 117.012 9.312C117.268 9.184 117.532 9.056 117.804 8.928C117.796 8.784 117.788 8.644 117.78 8.508C117.772 8.364 117.764 8.236 117.756 8.124C117.7 8.18 117.632 8.24 117.552 8.304C117.472 8.36 117.376 8.408 117.264 8.448C117.16 8.488 117.036 8.516 116.892 8.532C116.748 8.54 116.588 8.524 116.412 8.484C116.156 8.436 115.956 8.344 115.812 8.208C115.668 8.064 115.56 7.9 115.488 7.716C115.424 7.524 115.388 7.324 115.38 7.116C115.38 6.9 115.392 6.7 115.416 6.516C115.448 6.324 115.48 6.156 115.512 6.012C115.552 5.868 115.584 5.768 115.608 5.712C115.632 5.632 115.672 5.58 115.728 5.556C115.784 5.524 115.844 5.512 115.908 5.52C115.972 5.52 116.036 5.532 116.1 5.556C116.164 5.58 116.216 5.604 116.256 5.628C116.344 5.676 116.432 5.748 116.52 5.844C116.608 5.932 116.64 6.052 116.616 6.204C116.6 6.308 116.58 6.44 116.556 6.6C116.532 6.752 116.52 6.9 116.52 7.044C116.528 7.188 116.556 7.312 116.604 7.416C116.66 7.52 116.756 7.576 116.892 7.584C117.02 7.6 117.136 7.568 117.24 7.488C117.344 7.4 117.432 7.296 117.504 7.176C117.584 7.048 117.652 6.912 117.708 6.768C117.764 6.624 117.812 6.496 117.852 6.384C117.892 6.28 117.932 6.168 117.972 6.048C118.012 5.92 118.06 5.812 118.116 5.724C118.18 5.628 118.256 5.564 118.344 5.532C118.432 5.492 118.544 5.5 118.68 5.556C118.8 5.612 118.888 5.684 118.944 5.772C119.008 5.852 119.048 5.94 119.064 6.036C119.08 6.124 119.084 6.208 119.076 6.288C119.068 6.36 119.056 6.42 119.04 6.468C119.024 6.516 119 6.62 118.968 6.78C118.944 6.94 118.92 7.12 118.896 7.32C118.872 7.512 118.852 7.712 118.836 7.92C118.82 8.12 118.82 8.292 118.836 8.436C119.14 8.276 119.408 8.12 119.64 7.968C119.872 7.808 120.024 7.644 120.096 7.476C120.144 7.364 120.188 7.268 120.228 7.188C120.268 7.108 120.308 7.048 120.348 7.008C120.396 6.968 120.448 6.944 120.504 6.936C120.568 6.92 120.644 6.924 120.732 6.948C120.82 6.964 120.884 7.044 120.924 7.188C120.964 7.332 120.948 7.496 120.876 7.68H120.864ZM117.78 10.044C117.524 10.164 117.28 10.288 117.048 10.416C116.824 10.552 116.644 10.692 116.508 10.836C116.444 10.908 116.408 11 116.4 11.112C116.392 11.224 116.408 11.328 116.448 11.424C116.488 11.528 116.552 11.608 116.64 11.664C116.736 11.72 116.852 11.728 116.988 11.688C117.116 11.648 117.224 11.568 117.312 11.448C117.408 11.336 117.484 11.2 117.54 11.04C117.604 10.888 117.652 10.724 117.684 10.548C117.724 10.372 117.756 10.204 117.78 10.044ZM130.544 7.68C130.52 7.8 130.448 7.944 130.328 8.112C130.216 8.272 130.056 8.428 129.848 8.58C129.648 8.732 129.404 8.86 129.116 8.964C128.828 9.06 128.496 9.108 128.12 9.108C127.744 9.108 127.452 9.036 127.244 8.892C127.044 8.74 126.892 8.584 126.788 8.424C126.636 8.592 126.484 8.724 126.332 8.82C126.188 8.908 126.048 8.972 125.912 9.012C125.776 9.06 125.648 9.088 125.528 9.096C125.416 9.112 125.316 9.12 125.228 9.12C125.052 9.12 124.868 9.092 124.676 9.036C124.492 8.98 124.32 8.892 124.16 8.772C124.008 8.644 123.88 8.48 123.776 8.28C123.672 8.072 123.62 7.82 123.62 7.524C123.62 7.236 123.672 6.98 123.776 6.756C123.888 6.524 124.04 6.332 124.232 6.18C124.424 6.028 124.652 5.912 124.916 5.832C125.18 5.752 125.468 5.712 125.78 5.712C126.012 5.712 126.216 5.728 126.392 5.76C126.568 5.792 126.724 5.836 126.86 5.892V5.844C126.86 4.98 126.904 4.304 126.992 3.816C127.088 3.328 127.2 2.968 127.328 2.736C127.456 2.496 127.584 2.348 127.712 2.292C127.848 2.236 127.952 2.208 128.024 2.208C128.096 2.208 128.172 2.22 128.252 2.244C128.34 2.268 128.412 2.344 128.468 2.472C128.524 2.592 128.552 2.78 128.552 3.036C128.56 3.292 128.524 3.652 128.444 4.116C128.38 4.484 128.312 4.824 128.24 5.136C128.176 5.448 128.104 5.736 128.024 6C127.968 6.376 127.924 6.696 127.892 6.96C127.86 7.224 127.86 7.44 127.892 7.608C127.924 7.776 127.992 7.904 128.096 7.992C128.2 8.072 128.364 8.12 128.588 8.136C128.78 8.152 128.948 8.132 129.092 8.076C129.236 8.012 129.356 7.94 129.452 7.86C129.548 7.78 129.62 7.704 129.668 7.632C129.724 7.552 129.752 7.504 129.752 7.488C129.816 7.248 129.892 7.092 129.98 7.02C130.076 6.948 130.212 6.932 130.388 6.972C130.476 6.996 130.532 7.076 130.556 7.212C130.588 7.34 130.584 7.496 130.544 7.68ZM126.548 7.008C126.428 6.952 126.3 6.908 126.164 6.876C126.036 6.844 125.904 6.844 125.768 6.876C125.416 6.948 125.196 7.068 125.108 7.236C125.028 7.404 125.028 7.584 125.108 7.776C125.132 7.84 125.196 7.888 125.3 7.92C125.412 7.952 125.536 7.956 125.672 7.932C125.816 7.908 125.956 7.848 126.092 7.752C126.236 7.648 126.356 7.496 126.452 7.296C126.468 7.264 126.484 7.224 126.5 7.176C126.516 7.128 126.532 7.072 126.548 7.008ZM131.716 3.804C131.716 3.836 131.708 3.896 131.692 3.984C131.676 4.072 131.636 4.164 131.572 4.26C131.508 4.348 131.412 4.428 131.284 4.5C131.164 4.564 130.992 4.588 130.768 4.572C130.544 4.556 130.364 4.516 130.228 4.452C130.092 4.38 129.988 4.3 129.916 4.212C129.844 4.116 129.796 4.02 129.772 3.924C129.748 3.82 129.736 3.728 129.736 3.648C129.736 3.576 129.744 3.496 129.76 3.408C129.776 3.312 129.812 3.224 129.868 3.144C129.924 3.056 130.004 2.984 130.108 2.928C130.212 2.872 130.352 2.844 130.528 2.844C130.792 2.844 131.004 2.888 131.164 2.976C131.324 3.064 131.444 3.164 131.524 3.276C131.604 3.388 131.656 3.496 131.68 3.6C131.704 3.704 131.716 3.772 131.716 3.804ZM133.276 7.692C133.26 7.732 133.228 7.84 133.18 8.016C133.132 8.184 133.04 8.36 132.904 8.544C132.776 8.728 132.592 8.892 132.352 9.036C132.12 9.18 131.812 9.248 131.428 9.24C131.092 9.232 130.816 9.18 130.6 9.084C130.384 8.988 130.212 8.864 130.084 8.712C129.964 8.56 129.876 8.392 129.82 8.208C129.772 8.024 129.744 7.84 129.736 7.656C129.728 7.472 129.728 7.3 129.736 7.14C129.744 6.972 129.748 6.828 129.748 6.708C129.748 6.364 129.804 6.14 129.916 6.036C130.036 5.924 130.212 5.868 130.444 5.868C130.54 5.868 130.624 5.888 130.696 5.928C130.768 5.968 130.832 6.016 130.888 6.072C130.944 6.128 130.984 6.188 131.008 6.252C131.04 6.308 131.056 6.352 131.056 6.384C131.056 6.472 131.048 6.584 131.032 6.72C131.024 6.848 131.012 7 130.996 7.176C130.988 7.264 130.984 7.372 130.984 7.5C130.992 7.62 131.012 7.74 131.044 7.86C131.076 7.972 131.128 8.072 131.2 8.16C131.272 8.248 131.372 8.3 131.5 8.316C131.644 8.332 131.772 8.308 131.884 8.244C132.004 8.172 132.104 8.088 132.184 7.992C132.272 7.888 132.34 7.788 132.388 7.692C132.444 7.596 132.476 7.528 132.484 7.488C132.548 7.248 132.624 7.092 132.712 7.02C132.808 6.94 132.944 6.92 133.12 6.96C133.208 6.976 133.264 7.056 133.288 7.2C133.32 7.336 133.316 7.496 133.276 7.68V7.692ZM135.837 7.692L135.825 7.68C135.825 7.968 135.761 8.2 135.633 8.376C135.513 8.552 135.373 8.688 135.213 8.784C135.061 8.88 134.913 8.948 134.769 8.988C134.625 9.02 134.529 9.036 134.481 9.036C134.433 9.036 134.341 9.04 134.205 9.048C134.077 9.056 133.925 9.048 133.749 9.024C133.573 9 133.377 8.952 133.161 8.88C132.953 8.8 132.749 8.676 132.549 8.508C132.461 8.444 132.417 8.364 132.417 8.268C132.377 8.26 132.337 8.236 132.297 8.196C132.217 8.116 132.185 8 132.201 7.848C132.217 7.696 132.269 7.524 132.357 7.332C132.413 7.204 132.461 7.104 132.501 7.032C132.541 6.952 132.573 6.884 132.597 6.828C132.629 6.764 132.657 6.704 132.681 6.648C132.705 6.584 132.729 6.5 132.753 6.396C132.665 6.284 132.617 6.172 132.609 6.06C132.609 5.948 132.609 5.86 132.609 5.796C132.609 5.748 132.621 5.688 132.645 5.616C132.677 5.544 132.721 5.476 132.777 5.412C132.833 5.34 132.893 5.28 132.957 5.232C133.029 5.176 133.109 5.148 133.197 5.148C133.285 5.148 133.357 5.164 133.413 5.196C133.477 5.228 133.529 5.268 133.569 5.316C133.617 5.364 133.649 5.412 133.665 5.46C133.689 5.5 133.705 5.532 133.713 5.556C133.729 5.604 133.753 5.664 133.785 5.736C133.825 5.8 133.889 5.856 133.977 5.904C134.001 5.92 134.065 5.948 134.169 5.988C134.273 6.028 134.393 6.084 134.529 6.156C134.673 6.228 134.821 6.312 134.973 6.408C135.125 6.504 135.265 6.616 135.393 6.744C135.521 6.872 135.625 7.016 135.705 7.176C135.793 7.328 135.837 7.5 135.837 7.692ZM134.505 7.68V7.668C134.529 7.564 134.509 7.472 134.445 7.392C134.389 7.312 134.305 7.24 134.193 7.176C134.089 7.104 133.969 7.04 133.833 6.984C133.697 6.928 133.561 6.876 133.425 6.828C133.385 7.044 133.337 7.248 133.281 7.44C133.233 7.632 133.165 7.78 133.077 7.884L133.053 7.932C133.093 7.94 133.133 7.952 133.173 7.968C133.213 7.976 133.257 7.988 133.305 8.004C133.425 8.036 133.549 8.06 133.677 8.076C133.805 8.092 133.925 8.092 134.037 8.076C134.157 8.06 134.257 8.02 134.337 7.956C134.425 7.892 134.481 7.8 134.505 7.68ZM141.295 7.68C141.231 7.832 141.115 8 140.947 8.184C140.779 8.36 140.559 8.528 140.287 8.688C140.023 8.84 139.703 8.968 139.327 9.072C138.959 9.176 138.547 9.228 138.091 9.228C137.627 9.228 137.235 9.176 136.915 9.072C136.595 8.976 136.335 8.84 136.135 8.664C135.943 8.488 135.811 8.284 135.739 8.052C135.675 7.812 135.663 7.552 135.703 7.272C135.751 6.944 135.871 6.676 136.063 6.468C136.263 6.26 136.483 6.096 136.723 5.976C136.963 5.856 137.203 5.776 137.443 5.736C137.683 5.688 137.875 5.664 138.019 5.664C138.163 5.664 138.323 5.68 138.499 5.712C138.675 5.744 138.839 5.796 138.991 5.868C139.151 5.94 139.283 6.036 139.387 6.156C139.491 6.276 139.543 6.428 139.543 6.612C139.543 6.796 139.503 6.968 139.423 7.128C139.343 7.28 139.235 7.42 139.099 7.548C138.963 7.668 138.807 7.772 138.631 7.86C138.455 7.94 138.271 8 138.079 8.04C137.799 8.104 137.567 8.136 137.383 8.136C137.471 8.224 137.579 8.3 137.707 8.364C137.843 8.42 137.995 8.448 138.163 8.448C138.531 8.448 138.859 8.408 139.147 8.328C139.435 8.248 139.675 8.156 139.867 8.052C140.067 7.94 140.223 7.828 140.335 7.716C140.447 7.604 140.511 7.524 140.527 7.476C140.615 7.244 140.695 7.092 140.767 7.02C140.847 6.94 140.975 6.92 141.151 6.96C141.239 6.976 141.299 7.056 141.331 7.2C141.371 7.344 141.359 7.504 141.295 7.68ZM138.271 6.816C138.239 6.744 138.175 6.7 138.079 6.684C137.983 6.668 137.843 6.684 137.659 6.732C137.499 6.772 137.375 6.848 137.287 6.96C137.199 7.064 137.143 7.184 137.119 7.32C137.231 7.336 137.355 7.348 137.491 7.356C137.635 7.356 137.783 7.324 137.935 7.26C138.087 7.196 138.191 7.124 138.247 7.044C138.303 6.964 138.311 6.888 138.271 6.816ZM146.039 7.692C145.983 7.836 145.907 7.984 145.811 8.136C145.723 8.288 145.611 8.428 145.475 8.556C145.339 8.676 145.171 8.776 144.971 8.856C144.779 8.936 144.555 8.976 144.299 8.976C144.035 8.976 143.815 8.928 143.639 8.832C143.463 8.736 143.319 8.624 143.207 8.496C143.095 8.368 143.011 8.24 142.955 8.112C142.899 7.976 142.859 7.876 142.835 7.812C142.811 7.748 142.787 7.672 142.763 7.584C142.747 7.496 142.731 7.412 142.715 7.332C142.699 7.244 142.683 7.172 142.667 7.116C142.651 7.052 142.631 7.012 142.607 6.996C142.583 6.988 142.551 7.008 142.511 7.056C142.471 7.096 142.427 7.152 142.379 7.224C142.339 7.296 142.295 7.372 142.247 7.452C142.207 7.524 142.175 7.58 142.151 7.62C142.127 7.66 142.091 7.724 142.043 7.812C142.003 7.892 141.963 7.98 141.923 8.076C141.891 8.172 141.859 8.264 141.827 8.352C141.795 8.432 141.779 8.492 141.779 8.532C141.763 8.62 141.715 8.7 141.635 8.772C141.563 8.836 141.507 8.872 141.467 8.88C141.427 8.888 141.351 8.888 141.239 8.88C141.135 8.872 140.983 8.808 140.783 8.688C140.687 8.632 140.611 8.492 140.555 8.268C140.507 8.036 140.467 7.788 140.435 7.524C140.411 7.252 140.395 6.992 140.387 6.744C140.379 6.496 140.375 6.32 140.375 6.216C140.359 5.808 140.583 5.64 141.047 5.712C141.167 5.736 141.263 5.776 141.335 5.832C141.407 5.888 141.463 5.952 141.503 6.024C141.543 6.096 141.567 6.168 141.575 6.24C141.591 6.304 141.599 6.356 141.599 6.396C141.615 6.572 141.643 6.66 141.683 6.66C141.691 6.66 141.715 6.636 141.755 6.588C141.803 6.532 141.859 6.468 141.923 6.396C141.987 6.316 142.059 6.232 142.139 6.144C142.219 6.048 142.299 5.964 142.379 5.892C142.459 5.82 142.551 5.768 142.655 5.736C142.767 5.696 142.879 5.672 142.991 5.664C143.111 5.656 143.223 5.66 143.327 5.676C143.439 5.684 143.535 5.7 143.615 5.724C143.695 5.756 143.755 5.812 143.795 5.892C143.843 5.972 143.875 6.072 143.891 6.192C143.915 6.304 143.927 6.432 143.927 6.576C143.935 6.712 143.939 6.852 143.939 6.996C143.939 7.14 143.943 7.276 143.951 7.404C143.959 7.532 143.979 7.644 144.011 7.74C144.043 7.828 144.091 7.9 144.155 7.956C144.227 8.012 144.319 8.04 144.431 8.04C144.663 8.04 144.847 7.984 144.983 7.872C145.127 7.76 145.223 7.628 145.271 7.476C145.351 7.244 145.431 7.092 145.511 7.02C145.591 6.94 145.719 6.92 145.895 6.96C145.935 6.968 145.971 7 146.003 7.056C146.035 7.112 146.055 7.176 146.063 7.248C146.079 7.32 146.083 7.396 146.075 7.476C146.075 7.556 146.063 7.624 146.039 7.68V7.692ZM142.295 4.212C142.399 4.012 142.515 3.916 142.643 3.924C142.771 3.924 142.871 3.98 142.943 4.092C143.023 4.196 143.055 4.332 143.039 4.5C143.023 4.66 142.919 4.804 142.727 4.932C142.687 4.964 142.639 4.992 142.583 5.016C142.527 5.032 142.463 5.04 142.391 5.04C142.279 5.04 142.171 5.028 142.067 5.004C141.971 4.972 141.875 4.94 141.779 4.908C141.683 4.876 141.587 4.848 141.491 4.824C141.403 4.792 141.311 4.776 141.215 4.776C141.167 4.776 141.135 4.784 141.119 4.8C141.111 4.808 141.103 4.82 141.095 4.836C141.023 4.956 140.931 5.024 140.819 5.04C140.715 5.056 140.619 5.04 140.531 4.992C140.443 4.936 140.379 4.86 140.339 4.764C140.299 4.66 140.311 4.548 140.375 4.428C140.479 4.252 140.603 4.132 140.747 4.068C140.899 3.996 141.055 3.96 141.215 3.96C141.319 3.96 141.415 3.972 141.503 3.996C141.599 4.02 141.687 4.048 141.767 4.08C141.855 4.104 141.939 4.132 142.019 4.164C142.107 4.188 142.199 4.204 142.295 4.212ZM151.381 6.168C151.429 6.216 151.445 6.304 151.429 6.432C151.413 6.552 151.361 6.684 151.273 6.828C151.193 6.972 151.077 7.112 150.925 7.248C150.773 7.384 150.585 7.484 150.361 7.548C150.225 7.588 150.061 7.628 149.869 7.668C149.677 7.7 149.469 7.712 149.245 7.704C149.197 7.856 149.105 8.008 148.969 8.16C148.841 8.304 148.673 8.436 148.465 8.556C148.265 8.668 148.033 8.76 147.769 8.832C147.513 8.904 147.233 8.94 146.929 8.94C146.593 8.94 146.305 8.896 146.065 8.808C145.833 8.712 145.645 8.592 145.501 8.448C145.357 8.296 145.253 8.124 145.189 7.932C145.125 7.74 145.093 7.54 145.093 7.332C145.093 7.132 145.153 6.928 145.273 6.72C145.393 6.504 145.557 6.312 145.765 6.144C145.973 5.968 146.217 5.828 146.497 5.724C146.777 5.612 147.081 5.556 147.409 5.556C147.609 5.556 147.781 5.58 147.925 5.628C148.069 5.668 148.189 5.708 148.285 5.748C148.613 5.892 148.845 6.044 148.981 6.204C149.061 6.292 149.117 6.376 149.149 6.456C149.189 6.496 149.233 6.54 149.281 6.588C149.329 6.628 149.397 6.668 149.485 6.708C149.541 6.732 149.617 6.752 149.713 6.768C149.817 6.784 149.921 6.792 150.025 6.792C150.137 6.784 150.241 6.768 150.337 6.744C150.433 6.712 150.513 6.664 150.577 6.6C150.761 6.424 150.921 6.288 151.057 6.192C151.193 6.096 151.301 6.088 151.381 6.168ZM148.009 7.488C147.937 7.448 147.869 7.392 147.805 7.32C147.749 7.248 147.697 7.152 147.649 7.032C147.633 6.976 147.613 6.92 147.589 6.864C147.573 6.808 147.557 6.748 147.541 6.684C147.493 6.676 147.453 6.672 147.421 6.672C147.389 6.672 147.353 6.672 147.313 6.672C147.265 6.672 147.193 6.688 147.097 6.72C147.001 6.752 146.905 6.8 146.809 6.864C146.721 6.92 146.641 6.996 146.569 7.092C146.497 7.188 146.461 7.304 146.461 7.44C146.461 7.576 146.489 7.68 146.545 7.752C146.601 7.824 146.665 7.876 146.737 7.908C146.817 7.932 146.893 7.948 146.965 7.956C147.045 7.956 147.105 7.956 147.145 7.956C147.177 7.956 147.229 7.952 147.301 7.944C147.381 7.936 147.465 7.916 147.553 7.884C147.649 7.852 147.737 7.808 147.817 7.752C147.905 7.688 147.973 7.604 148.021 7.5L148.009 7.488ZM153.82 7.692L153.808 7.68C153.808 7.968 153.744 8.2 153.616 8.376C153.496 8.552 153.356 8.688 153.196 8.784C153.044 8.88 152.896 8.948 152.752 8.988C152.608 9.02 152.512 9.036 152.464 9.036C152.416 9.036 152.324 9.04 152.188 9.048C152.06 9.056 151.908 9.048 151.732 9.024C151.556 9 151.36 8.952 151.144 8.88C150.936 8.8 150.732 8.676 150.532 8.508C150.444 8.444 150.4 8.364 150.4 8.268C150.36 8.26 150.32 8.236 150.28 8.196C150.2 8.116 150.168 8 150.184 7.848C150.2 7.696 150.252 7.524 150.34 7.332C150.396 7.204 150.444 7.104 150.484 7.032C150.524 6.952 150.556 6.884 150.58 6.828C150.612 6.764 150.64 6.704 150.664 6.648C150.688 6.584 150.712 6.5 150.736 6.396C150.648 6.284 150.6 6.172 150.592 6.06C150.592 5.948 150.592 5.86 150.592 5.796C150.592 5.748 150.604 5.688 150.628 5.616C150.66 5.544 150.704 5.476 150.76 5.412C150.816 5.34 150.876 5.28 150.94 5.232C151.012 5.176 151.092 5.148 151.18 5.148C151.268 5.148 151.34 5.164 151.396 5.196C151.46 5.228 151.512 5.268 151.552 5.316C151.6 5.364 151.632 5.412 151.648 5.46C151.672 5.5 151.688 5.532 151.696 5.556C151.712 5.604 151.736 5.664 151.768 5.736C151.808 5.8 151.872 5.856 151.96 5.904C151.984 5.92 152.048 5.948 152.152 5.988C152.256 6.028 152.376 6.084 152.512 6.156C152.656 6.228 152.804 6.312 152.956 6.408C153.108 6.504 153.248 6.616 153.376 6.744C153.504 6.872 153.608 7.016 153.688 7.176C153.776 7.328 153.82 7.5 153.82 7.692ZM152.488 7.68V7.668C152.512 7.564 152.492 7.472 152.428 7.392C152.372 7.312 152.288 7.24 152.176 7.176C152.072 7.104 151.952 7.04 151.816 6.984C151.68 6.928 151.544 6.876 151.408 6.828C151.368 7.044 151.32 7.248 151.264 7.44C151.216 7.632 151.148 7.78 151.06 7.884L151.036 7.932C151.076 7.94 151.116 7.952 151.156 7.968C151.196 7.976 151.24 7.988 151.288 8.004C151.408 8.036 151.532 8.06 151.66 8.076C151.788 8.092 151.908 8.092 152.02 8.076C152.14 8.06 152.24 8.02 152.32 7.956C152.408 7.892 152.464 7.8 152.488 7.68Z" fill="black"/>
</svg>
